<?xml version="1.0" encoding="UTF-8"?>
<svg width="460px" height="201px" viewBox="0 0 460 201" version="1.1" xmlns="http://www.w3.org/2000/svg" xmlns:xlink="http://www.w3.org/1999/xlink">
    <title>bg_airdrop3</title>
    <defs>
        <path d="M30,0 L430,0 C446.568542,-1.01490192e-14 460,13.4314575 460,30 L460,201 L460,201 L0,201 L0,30 C-5.58177493e-15,13.4314575 13.4314575,-5.09121799e-16 30,0 Z" id="path-1"></path>
        <path d="M32.459504,4.93725284 C12.7359612,-3.24180447 2.01309891,1.43269542 0.290917143,18.9607525 C-2.29235551,45.2528381 12.6012986,59.4439242 34.1143545,59.4439242 C55.6274104,59.4439242 67.8733037,31.3842768 60.5274737,11.8652095 C55.6302536,-1.14750204 46.2742637,-3.45682092 32.459504,4.93725284 Z" id="path-3"></path>
        <path d="M33.6338593,5.29150246 C13.1967367,-3.47440508 2.085931,1.53549182 0.30144226,20.3211932 C-2.37529084,48.4997452 13.0572021,63.7090466 35.3485807,63.7090466 C57.6399594,63.7090466 70.328898,33.6361097 62.7173025,12.7165424 C57.6429055,-1.22983571 47.9484244,-3.70484904 33.6338593,5.29150246 Z" id="path-5"></path>
        <path d="M16.229752,2.54343328 C6.3679806,-1.67002048 1.00654946,0.738055218 0.145458572,9.76766038 C-1.14617775,23.3120681 6.30064929,30.6226276 17.0571772,30.6226276 C27.8137052,30.6226276 33.9366519,16.1676577 30.2637368,6.11238065 C27.8151268,-0.591137412 23.1371319,-1.78078654 16.229752,2.54343328 Z" id="path-7"></path>
        <path d="M16.9627029,2.67924175 C6.65556459,-1.75919244 1.05200618,0.777464214 0.152027617,10.2892117 C-1.19794022,24.556833 6.58519253,32.2577451 17.8274954,32.2577451 C29.0697983,32.2577451 35.469263,17.0309416 31.6304756,6.43875567 C29.0712841,-0.622701625 24.1820265,-1.87587293 16.9627029,2.67924175 Z" id="path-9"></path>
        <rect id="path-11" x="0" y="0" width="292" height="26" rx="13"></rect>
        <filter x="-6.0%" y="-51.9%" width="112.0%" height="234.6%" filterUnits="objectBoundingBox" id="filter-12">
            <feMorphology radius="0.5" operator="dilate" in="SourceAlpha" result="shadowSpreadOuter1"></feMorphology>
            <feOffset dx="0" dy="4" in="shadowSpreadOuter1" result="shadowOffsetOuter1"></feOffset>
            <feGaussianBlur stdDeviation="5" in="shadowOffsetOuter1" result="shadowBlurOuter1"></feGaussianBlur>
            <feComposite in="shadowBlurOuter1" in2="SourceAlpha" operator="out" result="shadowBlurOuter1"></feComposite>
            <feColorMatrix values="0 0 0 0 0   0 0 0 0 0   0 0 0 0 0  0 0 0 0.5 0" type="matrix" in="shadowBlurOuter1"></feColorMatrix>
        </filter>
        <linearGradient x1="18.1367688%" y1="48.4659621%" x2="85.5881901%" y2="50.8414641%" id="linearGradient-13">
            <stop stop-color="#FFFFFF" offset="0%"></stop>
            <stop stop-color="#FFCAD2" offset="100%"></stop>
        </linearGradient>
        <text id="text-14" font-family="Rubik-BoldItalic, Rubik" font-size="46" font-style="italic" font-weight="bold">
            <tspan x="74" y="126">720,000 CHE </tspan>
        </text>
        <filter x="-1.9%" y="-10.9%" width="106.4%" height="143.6%" filterUnits="objectBoundingBox" id="filter-15">
            <feOffset dx="4" dy="8" in="SourceAlpha" result="shadowOffsetOuter1"></feOffset>
            <feGaussianBlur stdDeviation="2" in="shadowOffsetOuter1" result="shadowBlurOuter1"></feGaussianBlur>
            <feColorMatrix values="0 0 0 0 0   0 0 0 0 0   0 0 0 0 0  0 0 0 0.5 0" type="matrix" in="shadowBlurOuter1"></feColorMatrix>
        </filter>
    </defs>
    <g id="页面-1" stroke="none" stroke-width="1" fill="none" fill-rule="evenodd">
        <g id="空投3-submit" transform="translate(-816.000000, -138.000000)">
            <g id="bg_airdrop3" transform="translate(816.000000, 138.000000)">
                <mask id="mask-2" fill="white">
                    <use xlink:href="#path-1"></use>
                </mask>
                <use id="矩形备份-8" fill="#1B1C20" xlink:href="#path-1"></use>
                <g id="编组-8" mask="url(#mask-2)" opacity="0.200079055">
                    <g transform="translate(290.000000, -96.000000)" id="编组-3">
                        <g transform="translate(97.500000, 102.000000) rotate(-25.000000) translate(-97.500000, -102.000000) translate(27.000000, 23.000000)">
                            <path d="M78.5228119,0.0730848984 C80.6387697,-0.342299464 82.6871749,1.05510037 83.098053,3.19426478 C83.5089311,5.33342919 82.1266909,7.40430014 80.0107331,7.8196845 C38.7529449,15.9190142 22.4709011,42.5549098 29.4045585,89.7348581 L29.6471742,91.3296784 C29.8158191,92.3602275 30.2765676,94.7850831 31.0163526,98.5260192 C31.4389204,100.662855 30.0680239,102.741418 27.9543695,103.168621 C25.8407151,103.595823 23.7847009,102.209891 23.3621331,100.073055 L22.5602431,95.9668251 C22.2274639,94.2312006 22.0121267,93.0479184 21.9108238,92.3965787 C13.8143517,40.3392974 32.4757255,9.11260327 78.5228119,0.0730848984 Z" id="路径-4" fill="#25030A" fill-rule="nonzero"></path>
                            <path d="M76.9784434,1.3876748 C78.4228017,-0.275673927 80.9633383,-0.471360347 82.6528908,0.950596944 C84.3424433,2.37255424 84.5412125,4.87368894 83.0968542,6.53703767 C58.8859767,34.4187157 59.4988547,63.0967569 85.1272212,93.9051019 C86.5355749,95.5981106 86.2831953,98.0945547 84.5635156,99.4810658 C82.8438359,100.867577 80.3080638,100.619112 78.8997101,98.9261029 C50.8666629,65.2270456 50.1623297,32.2695893 76.9784434,1.3876748 Z" id="路径-5" fill="#25030A" fill-rule="nonzero"></path>
                            <g id="编组-2" transform="translate(0.000000, 83.170345)">
                                <g id="编组" transform="translate(4.761312, 3.413189)">
                                    <mask id="mask-4" fill="white">
                                        <use xlink:href="#path-3"></use>
                                    </mask>
                                    <use id="路径" fill="#E55268" xlink:href="#path-3"></use>
                                    <path d="M2.67219585,36.5446717 C25.3988088,45.7903793 45.808631,40.4149679 63.9016626,20.4184376 C68.866214,42.0275913 57.944201,59.1213995 32.459504,61.3790722 C15.469706,62.8841874 5.54060331,54.6060539 2.67219585,36.5446717 Z" id="路径-3" fill="#DA374F" mask="url(#mask-4)"></path>
                                </g>
                                <path d="M36.0793249,5.20603138 C47.6386209,-1.53155243 57.142229,-1.07260127 63.7820015,5.36465829 C68.6293409,10.064154 71.4186878,17.8900018 71.4186878,23.796643 C71.4186878,30.565819 69.8642905,39.0426986 66.3010126,46.3975442 C61.0736264,57.1872214 52.2329577,64.2422627 39.373298,65.7613544 L38.8273329,65.8225349 L38.675365,65.8246859 C21.8393206,66.062991 9.23288898,56.5471578 3.39332956,41.8138621 C-1.79501665,28.7235871 -0.418949179,13.9504608 7.20610243,6.89908494 C14.9994791,-0.307951966 24.5521029,-0.758548436 35.4194263,5.12483289 L35.8320762,5.35117778 L36.0793249,5.20603138 Z M59.3444261,9.70189247 C55.3597453,5.83874438 49.821157,5.17556899 42.0976846,8.95349738 L41.72202,9.1393497 L41.8810782,9.25493369 C43.0732698,10.1282918 44.2789923,11.070508 45.4977319,12.0810942 L45.9553684,12.4632679 C47.2694001,13.568348 47.4143423,15.5011289 46.2791059,16.7802549 C45.1438696,18.0593808 43.1583455,18.2004728 41.8443139,17.0953927 C28.7333259,6.06925637 18.9654912,4.46772022 11.5372564,11.3370869 C6.03513791,16.42525 4.90017659,28.6099191 9.26023341,39.6104075 C14.1555044,51.9612493 24.3534934,59.7456519 38.1643223,59.7076396 L38.4295295,59.7052267 L38.6458131,59.6809703 C49.0665566,58.4402661 56.0964084,52.9026098 60.4621505,44.095009 L60.6133644,43.7864423 C63.7344236,37.3443659 65.1302561,29.7322167 65.1302561,23.796643 C65.1302561,19.4082855 62.8989038,13.1479587 59.3444261,9.70189247 Z" id="路径-2" fill="#25030A" fill-rule="nonzero"></path>
                                <path d="M23.6033933,9.9032066 C15.8807579,8.94601033 11.5781467,12.870515 10.6955598,21.6767206 C16.3220513,15.2331555 19.3007821,12.4806326 29.2298849,11.8362761 C28.5679447,11.4067051 26.6924475,10.7623486 23.6033933,9.9032066 Z" id="路径-8" fill="#FFEAED"></path>
                            </g>
                            <g id="编组-2备份" transform="translate(95.474809, 113.166840) rotate(-15.000000) translate(-95.474809, -113.166840) translate(58.474809, 77.166840)">
                                <g id="编组" transform="translate(3.386942, 3.835900)">
                                    <mask id="mask-6" fill="white">
                                        <use xlink:href="#path-5"></use>
                                    </mask>
                                    <use id="路径" fill="#E55268" xlink:href="#path-5"></use>
                                    <path d="M2.75186089,39.1218557 C26.3196796,49.060553 47.4652143,43.3295233 66.188465,21.9287667 C71.3650442,45.0898677 60.0698423,63.3904538 33.660071,65.7737027 C16.0535568,67.3625354 5.75082007,58.4785864 2.75186089,39.1218557 Z" id="路径-3" fill="#DA374F" mask="url(#mask-6)" transform="translate(35.082887, 43.941626) rotate(10.000000) translate(-35.082887, -43.941626) "></path>
                                </g>
                                <path d="M35.5938266,5.86492905 L35.6299192,5.84275818 C47.8895309,-1.65916223 57.9894622,-1.22580831 65.0277474,5.80871904 C70.1097453,10.8880037 73.0299513,19.3342277 73.0299513,25.7193678 C73.0299513,33.0102127 71.4069188,42.1349725 67.6842655,50.0562768 C62.2181427,61.6874493 52.9680701,69.2965953 39.5229535,70.9327152 L38.9917533,70.994182 L38.8686045,70.9990025 C21.2281136,71.6895069 8.46346526,60.9974617 2.90063571,44.3006138 C-1.94049881,29.7699354 -0.126559142,13.4642446 7.72387295,6.82505129 C15.4459658,0.294395814 24.7868604,0.0808763496 35.3955244,5.75746669 L35.5938266,5.86492905 Z M60.1982897,10.7177564 C56.1300367,6.65167543 50.4836176,5.92608716 42.5952105,9.85072482 L42.1778331,10.0615999 L42.3547539,10.1905348 C43.5423383,11.0620302 44.743495,11.9995055 45.957798,13.0024424 L46.413777,13.3816112 C47.8707999,14.6013514 48.0709409,16.7806705 46.8608045,18.2492565 C45.650668,19.7178425 43.4885082,19.9195718 42.0314853,18.6998316 C29.068381,7.84782618 19.379422,5.99231431 12.132532,12.1210857 C6.8527831,16.5862251 5.36328176,29.9755063 9.40269789,42.0998247 C14.0179976,55.9526592 24.0787337,64.4796971 38.1740756,64.1049746 L38.4857077,64.0942319 L38.7264832,64.0660938 C49.5303187,62.7427397 56.8093597,56.831151 61.3324995,47.4190027 L61.4856309,47.0967795 C64.7224384,40.2092895 66.1710655,32.0650442 66.1710655,25.7193678 C66.1710655,21.0544693 63.8639232,14.3814327 60.1982897,10.7177564 Z" id="路径-2" fill="#25030A" fill-rule="nonzero"></path>
                            </g>
                            <path d="M77.3667717,94.3864299 C70.8178883,93.5461511 67.1644176,97.0286907 66.4063596,104.834049 C71.1853894,99.1176323 73.7147536,96.6751301 82.1367685,96.0937493 C81.5758104,95.7137332 79.9858115,95.1446267 77.3667717,94.3864299 Z" id="路径-8备份" fill="#FFEAED" transform="translate(74.271564, 99.548989) rotate(-9.000000) translate(-74.271564, -99.548989) "></path>
                        </g>
                    </g>
                </g>
                <g id="编组-3备份-3" mask="url(#mask-2)" opacity="0.154715402">
                    <g transform="translate(3.000000, -47.000000)" id="编组-3备份-2">
                        <g transform="translate(52.000000, 53.000000) rotate(-330.000000) translate(-52.000000, -53.000000) translate(16.000000, 13.000000)">
                            <path d="M41.2098803,0.430402876 C42.2830387,0.22119382 43.3219361,0.924996674 43.5303227,2.00239055 C43.7387093,3.07978443 43.0376733,4.12278218 41.9645149,4.33199123 C21.0396466,8.41123272 12.7818209,21.8264478 16.2983901,45.5887108 L16.4214385,46.3919448 C16.5069708,46.9109827 16.7406503,48.1322654 17.1158499,50.0163944 C17.3301652,51.0926154 16.6348824,52.1394875 15.5628923,52.3546487 C14.4909023,52.5698098 13.4481457,51.8717829 13.2338304,50.7955619 L12.8271328,48.7274518 C12.658356,47.8533015 12.5491426,47.2573394 12.4977644,46.929291 C8.39144609,20.7105508 17.8560055,4.98317202 41.2098803,0.430402876 Z" id="路径-4" fill="#25030A" fill-rule="nonzero"></path>
                            <path d="M39.3225842,1.4957569 C40.0276546,0.650643601 41.2678297,0.551219352 42.0925927,1.27368663 C42.9173558,1.9961539 43.014386,3.26692903 42.3093156,4.11204233 C30.4906605,18.2781499 30.7898398,32.8488731 43.3004489,48.50196 C43.9879435,49.3621429 43.8647432,50.6305349 43.0252733,51.3349927 C42.1858035,52.0394505 40.9479543,51.9132103 40.2604597,51.0530274 C26.5759943,33.9312291 26.2321706,17.1862229 39.3225842,1.4957569 Z" id="路径-5" fill="#25030A" fill-rule="nonzero"></path>
                            <g id="编组-2" transform="translate(0.782378, 42.178203)">
                                <g id="编组" transform="translate(2.380656, 1.758310)">
                                    <mask id="mask-8" fill="white">
                                        <use xlink:href="#path-7"></use>
                                    </mask>
                                    <use id="路径" fill="#E55268" xlink:href="#path-7"></use>
                                    <path d="M1.33609793,18.826043 C12.6994044,23.5889833 22.9043155,20.8198319 31.9508313,10.5185891 C34.433107,21.6505773 28.9721005,30.4564785 16.229752,31.6195221 C7.73485301,32.3948844 2.77030165,28.1303914 1.33609793,18.826043 Z" id="路径-3" fill="#DA374F" mask="url(#mask-8)"></path>
                                </g>
                                <path d="M18.0396625,2.68189496 C23.8193105,-0.788981557 28.5711145,-0.55255217 31.8910007,2.76361185 C34.3146705,5.18456418 35.7093439,9.21606151 35.7093439,12.2588767 C35.7093439,15.7460279 34.9321452,20.1129053 33.1505063,23.9017652 C30.5368132,29.4600838 26.1164788,33.0944989 19.686649,33.8770613 L19.4136664,33.9085786 L19.3376825,33.9096867 C10.9196603,34.0324499 4.61644449,29.130354 1.69666478,21.5404744 C-0.897508327,14.7969994 -0.209474589,7.18660104 3.60305121,3.55407406 C7.49973954,-0.158641922 12.2760514,-0.390767376 17.7097132,2.64006543 L17.9160381,2.75666734 L18.0396625,2.68189496 Z M29.672213,4.9979446 C27.6798727,3.00783802 24.9105785,2.66620221 21.0488423,4.61240774 L20.86101,4.70814984 L20.9405391,4.76769311 C21.5366349,5.21760484 22.1394962,5.70298898 22.7488659,6.22359397 L22.9776842,6.42047133 C23.6347,6.98975504 23.7071712,7.98543005 23.139553,8.64437371 C22.5719348,9.30331738 21.5791728,9.37600114 20.9221569,8.80671744 C14.366663,3.12658662 9.48274558,2.30155284 5.7686282,5.84031751 C3.01756896,8.4614924 2.4500883,14.7384432 4.63011671,20.4053615 C7.07775219,26.7679163 12.1767467,30.7780631 19.0821611,30.758481 L19.2147647,30.757238 L19.3229066,30.7447423 C24.5332783,30.1055916 28.0482042,27.2528596 30.2310753,22.7156107 L30.3066822,22.5566521 C31.8672118,19.2380067 32.565128,15.3165965 32.565128,12.2588767 C32.565128,9.9982077 31.4494519,6.77319084 29.672213,4.9979446 Z" id="路径-2" fill="#25030A" fill-rule="nonzero"></path>
                                <path d="M11.8016967,5.10165188 C7.94037893,4.60855078 5.78907334,6.63026531 5.34777989,11.1667955 C8.16102566,7.84738316 9.65039107,6.42941681 14.6149424,6.09747558 C14.2839723,5.87618142 13.3462237,5.54424019 11.8016967,5.10165188 Z" id="路径-8" fill="#FFEAED"></path>
                            </g>
                            <g id="编组-2备份" transform="translate(48.826223, 57.121086) rotate(-15.000000) translate(-48.826223, -57.121086) translate(30.326223, 39.121086)">
                                <g id="编组" transform="translate(1.708150, 1.942228)">
                                    <mask id="mask-10" fill="white">
                                        <use xlink:href="#path-9"></use>
                                    </mask>
                                    <use id="路径" fill="#E55268" xlink:href="#path-9"></use>
                                    <path d="M1.38354549,19.7972464 C13.2744091,24.8369408 23.9381406,21.9427125 33.37474,11.1145614 C35.9936786,22.842074 30.3026869,32.1032391 16.9825624,33.300794 C8.10247947,34.099164 2.90280716,29.5979814 1.38354549,19.7972464 Z" id="路径-3" fill="#DA374F" mask="url(#mask-10)" transform="translate(17.690005, 22.252780) rotate(10.000000) translate(-17.690005, -22.252780) "></path>
                                </g>
                                <path d="M17.9511813,2.96958433 L17.969384,2.95835857 C24.1523245,-0.840082142 29.2460645,-0.620662434 32.7957118,2.94112357 C35.3587368,5.51291325 36.8314963,9.7894824 36.8314963,13.0224647 C36.8314963,16.7140318 36.0129456,21.3341633 34.1354846,25.3449503 C31.3787323,31.2341515 26.7136051,35.0868837 19.932774,35.9152988 L19.6648717,35.9464213 L19.6027635,35.948862 C10.706062,36.2984845 4.26841431,30.8847908 1.46288956,22.4306905 C-0.978659762,15.073385 -0.0638280939,6.81733904 3.89541268,3.45572217 C7.78992761,0.149061172 12.5008594,0.0409500504 17.8511707,2.91517301 L17.9511813,2.96958433 Z M30.3600516,5.42671208 C28.3082928,3.36793692 25.4606109,3.00055046 21.4822181,4.98770877 L21.2717204,5.09448096 L21.3609476,5.15976447 C21.9598869,5.60102796 22.5656712,6.07569898 23.1780857,6.58351512 L23.4080515,6.77549933 C24.1428778,7.39308933 24.2438157,8.49654201 23.6335026,9.24012986 C23.0231895,9.98371772 21.9327386,10.0858592 21.1979122,9.46826916 C14.6601764,3.97358288 9.77370377,3.03408319 6.11884987,6.13725858 C3.45609234,8.39808866 2.70488599,15.1774715 4.74210138,21.316367 C7.06975448,28.3304603 12.143727,32.6479479 19.2524889,32.458215 L19.4096556,32.4527757 L19.5310869,32.4385285 C24.9798298,31.7684758 28.6508985,28.7752663 30.9320722,24.0096216 L31.0093016,23.8464706 C32.6417341,20.3591339 33.3723262,16.2354654 33.3723262,13.0224647 C33.3723262,10.6604908 32.2087556,7.28173807 30.3600516,5.42671208 Z" id="路径-2" fill="#25030A" fill-rule="nonzero"></path>
                            </g>
                            <path d="M39.9094966,47.789927 C36.6066106,47.366529 34.7627888,49.1307964 34.3780313,53.082729 C36.7902544,50.1871469 38.0667755,48.9497765 42.3148753,48.6528388 C42.0320548,48.4606171 41.2302619,48.1729798 39.9094966,47.789927 Z" id="路径-8备份" fill="#FFEAED" transform="translate(38.346453, 50.405599) rotate(-9.000000) translate(-38.346453, -50.405599) "></path>
                            <path d="M37.179962,6.82102121 C37.179962,6.82102121 33.3731217,28.9154574 55.8680873,25.1432366 C57.2523928,3.04880039 37.179962,6.82102121 37.179962,6.82102121 Z" id="路径-6备份" fill="#39B465"></path>
                            <path d="M40.8435153,6.37589763 C39.9438844,6.37977377 39.1044751,6.42884056 38.3452102,6.50822771 L38.0424785,6.54191085 C37.7283324,6.5791002 37.4891838,6.61484319 37.3342626,6.64255562 L36.1782069,6.84935164 L35.9717985,7.98963282 C35.9361178,8.18674723 35.8878955,8.51416863 35.8399114,8.95341498 L35.8288482,9.05675616 C35.5324145,11.882528 35.6651798,14.9889736 36.5504398,17.9646249 C37.5802827,21.4262673 39.529771,24.2372928 42.568775,26.0806698 C46.1381933,28.2457815 50.9828937,28.9197667 57.195172,27.928184 L58.5247846,27.7159557 L58.6120055,26.3908882 C59.2852021,16.163631 55.3593507,10.0651677 48.3923942,7.575839 C45.9974648,6.72011867 43.4279961,6.36476217 40.8435153,6.37589763 Z M40.8582925,9.70915599 C43.0737062,9.69961069 45.2594819,10.0019026 47.2402703,10.7096483 L47.4055734,10.7698043 C52.5066903,12.6602405 55.4397381,16.9352057 55.3029778,24.6405636 L55.2986073,24.8280826 L55.1994724,24.8403456 C50.4657529,25.3986464 46.8993317,24.7937586 44.3406296,23.2417197 C42.0746274,21.8672246 40.6043405,19.7471739 39.7949437,17.0265238 L39.7227576,16.7762292 C39.0917317,14.5178309 38.961926,12.1084708 39.1460674,9.88948543 L39.155555,9.78061067 L39.3763871,9.76397207 C39.841936,9.73100927 40.338071,9.71139741 40.8582925,9.70915599 Z" id="路径-6" fill="#25030A" fill-rule="nonzero"></path>
                        </g>
                    </g>
                </g>
                <rect id="矩形" stroke="#E55268" stroke-width="3" mask="url(#mask-2)" x="15" y="15" width="430" height="235" rx="30"></rect>
                <g id="编组-9" opacity="0.144042969" mask="url(#mask-2)" fill="#D8D8D8">
                    <g transform="translate(35.000000, 78.000000)">
                        <circle id="椭圆形" cx="2" cy="2" r="2"></circle>
                        <path d="M2,24 C3.1045695,24 4,24.8954305 4,26 C4,27.1045695 3.1045695,28 2,28 C0.8954305,28 0,27.1045695 0,26 C0,24.8954305 0.8954305,24 2,24 Z M146,24 C147.104569,24 148,24.8954305 148,26 C148,27.1045695 147.104569,28 146,28 C144.895431,28 144,27.1045695 144,26 C144,24.8954305 144.895431,24 146,24 Z M74,24 C75.1045695,24 76,24.8954305 76,26 C76,27.1045695 75.1045695,28 74,28 C72.8954305,28 72,27.1045695 72,26 C72,24.8954305 72.8954305,24 74,24 Z M218,24 C219.104569,24 220,24.8954305 220,26 C220,27.1045695 219.104569,28 218,28 C216.895431,28 216,27.1045695 216,26 C216,24.8954305 216.895431,24 218,24 Z M38,24 C39.1045695,24 40,24.8954305 40,26 C40,27.1045695 39.1045695,28 38,28 C36.8954305,28 36,27.1045695 36,26 C36,24.8954305 36.8954305,24 38,24 Z M182,24 C183.104569,24 184,24.8954305 184,26 C184,27.1045695 183.104569,28 182,28 C180.895431,28 180,27.1045695 180,26 C180,24.8954305 180.895431,24 182,24 Z M110,24 C111.104569,24 112,24.8954305 112,26 C112,27.1045695 111.104569,28 110,28 C108.895431,28 108,27.1045695 108,26 C108,24.8954305 108.895431,24 110,24 Z M254,24 C255.104569,24 256,24.8954305 256,26 C256,27.1045695 255.104569,28 254,28 C252.895431,28 252,27.1045695 252,26 C252,24.8954305 252.895431,24 254,24 Z M20,24 C21.1045695,24 22,24.8954305 22,26 C22,27.1045695 21.1045695,28 20,28 C18.8954305,28 18,27.1045695 18,26 C18,24.8954305 18.8954305,24 20,24 Z M164,24 C165.104569,24 166,24.8954305 166,26 C166,27.1045695 165.104569,28 164,28 C162.895431,28 162,27.1045695 162,26 C162,24.8954305 162.895431,24 164,24 Z M92,24 C93.1045695,24 94,24.8954305 94,26 C94,27.1045695 93.1045695,28 92,28 C90.8954305,28 90,27.1045695 90,26 C90,24.8954305 90.8954305,24 92,24 Z M236,24 C237.104569,24 238,24.8954305 238,26 C238,27.1045695 237.104569,28 236,28 C234.895431,28 234,27.1045695 234,26 C234,24.8954305 234.895431,24 236,24 Z M56,24 C57.1045695,24 58,24.8954305 58,26 C58,27.1045695 57.1045695,28 56,28 C54.8954305,28 54,27.1045695 54,26 C54,24.8954305 54.8954305,24 56,24 Z M200,24 C201.104569,24 202,24.8954305 202,26 C202,27.1045695 201.104569,28 200,28 C198.895431,28 198,27.1045695 198,26 C198,24.8954305 198.895431,24 200,24 Z M128,24 C129.104569,24 130,24.8954305 130,26 C130,27.1045695 129.104569,28 128,28 C126.895431,28 126,27.1045695 126,26 C126,24.8954305 126.895431,24 128,24 Z" id="形状结合"></path>
                        <path d="M2,48 C3.1045695,48 4,48.8954305 4,50 C4,51.1045695 3.1045695,52 2,52 C0.8954305,52 0,51.1045695 0,50 C0,48.8954305 0.8954305,48 2,48 Z M146,48 C147.104569,48 148,48.8954305 148,50 C148,51.1045695 147.104569,52 146,52 C144.895431,52 144,51.1045695 144,50 C144,48.8954305 144.895431,48 146,48 Z M74,48 C75.1045695,48 76,48.8954305 76,50 C76,51.1045695 75.1045695,52 74,52 C72.8954305,52 72,51.1045695 72,50 C72,48.8954305 72.8954305,48 74,48 Z M218,48 C219.104569,48 220,48.8954305 220,50 C220,51.1045695 219.104569,52 218,52 C216.895431,52 216,51.1045695 216,50 C216,48.8954305 216.895431,48 218,48 Z M38,48 C39.1045695,48 40,48.8954305 40,50 C40,51.1045695 39.1045695,52 38,52 C36.8954305,52 36,51.1045695 36,50 C36,48.8954305 36.8954305,48 38,48 Z M182,48 C183.104569,48 184,48.8954305 184,50 C184,51.1045695 183.104569,52 182,52 C180.895431,52 180,51.1045695 180,50 C180,48.8954305 180.895431,48 182,48 Z M110,48 C111.104569,48 112,48.8954305 112,50 C112,51.1045695 111.104569,52 110,52 C108.895431,52 108,51.1045695 108,50 C108,48.8954305 108.895431,48 110,48 Z M254,48 C255.104569,48 256,48.8954305 256,50 C256,51.1045695 255.104569,52 254,52 C252.895431,52 252,51.1045695 252,50 C252,48.8954305 252.895431,48 254,48 Z M20,48 C21.1045695,48 22,48.8954305 22,50 C22,51.1045695 21.1045695,52 20,52 C18.8954305,52 18,51.1045695 18,50 C18,48.8954305 18.8954305,48 20,48 Z M164,48 C165.104569,48 166,48.8954305 166,50 C166,51.1045695 165.104569,52 164,52 C162.895431,52 162,51.1045695 162,50 C162,48.8954305 162.895431,48 164,48 Z M92,48 C93.1045695,48 94,48.8954305 94,50 C94,51.1045695 93.1045695,52 92,52 C90.8954305,52 90,51.1045695 90,50 C90,48.8954305 90.8954305,48 92,48 Z M236,48 C237.104569,48 238,48.8954305 238,50 C238,51.1045695 237.104569,52 236,52 C234.895431,52 234,51.1045695 234,50 C234,48.8954305 234.895431,48 236,48 Z M56,48 C57.1045695,48 58,48.8954305 58,50 C58,51.1045695 57.1045695,52 56,52 C54.8954305,52 54,51.1045695 54,50 C54,48.8954305 54.8954305,48 56,48 Z M200,48 C201.104569,48 202,48.8954305 202,50 C202,51.1045695 201.104569,52 200,52 C198.895431,52 198,51.1045695 198,50 C198,48.8954305 198.895431,48 200,48 Z M128,48 C129.104569,48 130,48.8954305 130,50 C130,51.1045695 129.104569,52 128,52 C126.895431,52 126,51.1045695 126,50 C126,48.8954305 126.895431,48 128,48 Z" id="形状结合备份-4"></path>
                        <path d="M2,24 C3.1045695,24 4,24.8954305 4,26 C4,27.1045695 3.1045695,28 2,28 C0.8954305,28 0,27.1045695 0,26 C0,24.8954305 0.8954305,24 2,24 Z M146,24 C147.104569,24 148,24.8954305 148,26 C148,27.1045695 147.104569,28 146,28 C144.895431,28 144,27.1045695 144,26 C144,24.8954305 144.895431,24 146,24 Z M74,24 C75.1045695,24 76,24.8954305 76,26 C76,27.1045695 75.1045695,28 74,28 C72.8954305,28 72,27.1045695 72,26 C72,24.8954305 72.8954305,24 74,24 Z M218,24 C219.104569,24 220,24.8954305 220,26 C220,27.1045695 219.104569,28 218,28 C216.895431,28 216,27.1045695 216,26 C216,24.8954305 216.895431,24 218,24 Z M38,24 C39.1045695,24 40,24.8954305 40,26 C40,27.1045695 39.1045695,28 38,28 C36.8954305,28 36,27.1045695 36,26 C36,24.8954305 36.8954305,24 38,24 Z M182,24 C183.104569,24 184,24.8954305 184,26 C184,27.1045695 183.104569,28 182,28 C180.895431,28 180,27.1045695 180,26 C180,24.8954305 180.895431,24 182,24 Z M110,24 C111.104569,24 112,24.8954305 112,26 C112,27.1045695 111.104569,28 110,28 C108.895431,28 108,27.1045695 108,26 C108,24.8954305 108.895431,24 110,24 Z M254,24 C255.104569,24 256,24.8954305 256,26 C256,27.1045695 255.104569,28 254,28 C252.895431,28 252,27.1045695 252,26 C252,24.8954305 252.895431,24 254,24 Z M20,24 C21.1045695,24 22,24.8954305 22,26 C22,27.1045695 21.1045695,28 20,28 C18.8954305,28 18,27.1045695 18,26 C18,24.8954305 18.8954305,24 20,24 Z M164,24 C165.104569,24 166,24.8954305 166,26 C166,27.1045695 165.104569,28 164,28 C162.895431,28 162,27.1045695 162,26 C162,24.8954305 162.895431,24 164,24 Z M92,24 C93.1045695,24 94,24.8954305 94,26 C94,27.1045695 93.1045695,28 92,28 C90.8954305,28 90,27.1045695 90,26 C90,24.8954305 90.8954305,24 92,24 Z M236,24 C237.104569,24 238,24.8954305 238,26 C238,27.1045695 237.104569,28 236,28 C234.895431,28 234,27.1045695 234,26 C234,24.8954305 234.895431,24 236,24 Z M56,24 C57.1045695,24 58,24.8954305 58,26 C58,27.1045695 57.1045695,28 56,28 C54.8954305,28 54,27.1045695 54,26 C54,24.8954305 54.8954305,24 56,24 Z M200,24 C201.104569,24 202,24.8954305 202,26 C202,27.1045695 201.104569,28 200,28 C198.895431,28 198,27.1045695 198,26 C198,24.8954305 198.895431,24 200,24 Z M128,24 C129.104569,24 130,24.8954305 130,26 C130,27.1045695 129.104569,28 128,28 C126.895431,28 126,27.1045695 126,26 C126,24.8954305 126.895431,24 128,24 Z" id="形状结合备份-6"></path>
                        <path d="M2,72 C3.1045695,72 4,72.8954305 4,74 C4,75.1045695 3.1045695,76 2,76 C0.8954305,76 0,75.1045695 0,74 C0,72.8954305 0.8954305,72 2,72 Z M146,72 C147.104569,72 148,72.8954305 148,74 C148,75.1045695 147.104569,76 146,76 C144.895431,76 144,75.1045695 144,74 C144,72.8954305 144.895431,72 146,72 Z M74,72 C75.1045695,72 76,72.8954305 76,74 C76,75.1045695 75.1045695,76 74,76 C72.8954305,76 72,75.1045695 72,74 C72,72.8954305 72.8954305,72 74,72 Z M218,72 C219.104569,72 220,72.8954305 220,74 C220,75.1045695 219.104569,76 218,76 C216.895431,76 216,75.1045695 216,74 C216,72.8954305 216.895431,72 218,72 Z M38,72 C39.1045695,72 40,72.8954305 40,74 C40,75.1045695 39.1045695,76 38,76 C36.8954305,76 36,75.1045695 36,74 C36,72.8954305 36.8954305,72 38,72 Z M182,72 C183.104569,72 184,72.8954305 184,74 C184,75.1045695 183.104569,76 182,76 C180.895431,76 180,75.1045695 180,74 C180,72.8954305 180.895431,72 182,72 Z M110,72 C111.104569,72 112,72.8954305 112,74 C112,75.1045695 111.104569,76 110,76 C108.895431,76 108,75.1045695 108,74 C108,72.8954305 108.895431,72 110,72 Z M254,72 C255.104569,72 256,72.8954305 256,74 C256,75.1045695 255.104569,76 254,76 C252.895431,76 252,75.1045695 252,74 C252,72.8954305 252.895431,72 254,72 Z M20,72 C21.1045695,72 22,72.8954305 22,74 C22,75.1045695 21.1045695,76 20,76 C18.8954305,76 18,75.1045695 18,74 C18,72.8954305 18.8954305,72 20,72 Z M164,72 C165.104569,72 166,72.8954305 166,74 C166,75.1045695 165.104569,76 164,76 C162.895431,76 162,75.1045695 162,74 C162,72.8954305 162.895431,72 164,72 Z M92,72 C93.1045695,72 94,72.8954305 94,74 C94,75.1045695 93.1045695,76 92,76 C90.8954305,76 90,75.1045695 90,74 C90,72.8954305 90.8954305,72 92,72 Z M236,72 C237.104569,72 238,72.8954305 238,74 C238,75.1045695 237.104569,76 236,76 C234.895431,76 234,75.1045695 234,74 C234,72.8954305 234.895431,72 236,72 Z M56,72 C57.1045695,72 58,72.8954305 58,74 C58,75.1045695 57.1045695,76 56,76 C54.8954305,76 54,75.1045695 54,74 C54,72.8954305 54.8954305,72 56,72 Z M200,72 C201.104569,72 202,72.8954305 202,74 C202,75.1045695 201.104569,76 200,76 C198.895431,76 198,75.1045695 198,74 C198,72.8954305 198.895431,72 200,72 Z M128,72 C129.104569,72 130,72.8954305 130,74 C130,75.1045695 129.104569,76 128,76 C126.895431,76 126,75.1045695 126,74 C126,72.8954305 126.895431,72 128,72 Z" id="形状结合备份-7"></path>
                        <path d="M2,120 C3.1045695,120 4,120.895431 4,122 C4,123.104569 3.1045695,124 2,124 C0.8954305,124 0,123.104569 0,122 C0,120.895431 0.8954305,120 2,120 Z M146,120 C147.104569,120 148,120.895431 148,122 C148,123.104569 147.104569,124 146,124 C144.895431,124 144,123.104569 144,122 C144,120.895431 144.895431,120 146,120 Z M74,120 C75.1045695,120 76,120.895431 76,122 C76,123.104569 75.1045695,124 74,124 C72.8954305,124 72,123.104569 72,122 C72,120.895431 72.8954305,120 74,120 Z M218,120 C219.104569,120 220,120.895431 220,122 C220,123.104569 219.104569,124 218,124 C216.895431,124 216,123.104569 216,122 C216,120.895431 216.895431,120 218,120 Z M38,120 C39.1045695,120 40,120.895431 40,122 C40,123.104569 39.1045695,124 38,124 C36.8954305,124 36,123.104569 36,122 C36,120.895431 36.8954305,120 38,120 Z M182,120 C183.104569,120 184,120.895431 184,122 C184,123.104569 183.104569,124 182,124 C180.895431,124 180,123.104569 180,122 C180,120.895431 180.895431,120 182,120 Z M110,120 C111.104569,120 112,120.895431 112,122 C112,123.104569 111.104569,124 110,124 C108.895431,124 108,123.104569 108,122 C108,120.895431 108.895431,120 110,120 Z M254,120 C255.104569,120 256,120.895431 256,122 C256,123.104569 255.104569,124 254,124 C252.895431,124 252,123.104569 252,122 C252,120.895431 252.895431,120 254,120 Z M20,120 C21.1045695,120 22,120.895431 22,122 C22,123.104569 21.1045695,124 20,124 C18.8954305,124 18,123.104569 18,122 C18,120.895431 18.8954305,120 20,120 Z M164,120 C165.104569,120 166,120.895431 166,122 C166,123.104569 165.104569,124 164,124 C162.895431,124 162,123.104569 162,122 C162,120.895431 162.895431,120 164,120 Z M92,120 C93.1045695,120 94,120.895431 94,122 C94,123.104569 93.1045695,124 92,124 C90.8954305,124 90,123.104569 90,122 C90,120.895431 90.8954305,120 92,120 Z M236,120 C237.104569,120 238,120.895431 238,122 C238,123.104569 237.104569,124 236,124 C234.895431,124 234,123.104569 234,122 C234,120.895431 234.895431,120 236,120 Z M56,120 C57.1045695,120 58,120.895431 58,122 C58,123.104569 57.1045695,124 56,124 C54.8954305,124 54,123.104569 54,122 C54,120.895431 54.8954305,120 56,120 Z M200,120 C201.104569,120 202,120.895431 202,122 C202,123.104569 201.104569,124 200,124 C198.895431,124 198,123.104569 198,122 C198,120.895431 198.895431,120 200,120 Z M128,120 C129.104569,120 130,120.895431 130,122 C130,123.104569 129.104569,124 128,124 C126.895431,124 126,123.104569 126,122 C126,120.895431 126.895431,120 128,120 Z" id="形状结合备份-9"></path>
                        <path d="M2,48 C3.1045695,48 4,48.8954305 4,50 C4,51.1045695 3.1045695,52 2,52 C0.8954305,52 0,51.1045695 0,50 C0,48.8954305 0.8954305,48 2,48 Z M146,48 C147.104569,48 148,48.8954305 148,50 C148,51.1045695 147.104569,52 146,52 C144.895431,52 144,51.1045695 144,50 C144,48.8954305 144.895431,48 146,48 Z M74,48 C75.1045695,48 76,48.8954305 76,50 C76,51.1045695 75.1045695,52 74,52 C72.8954305,52 72,51.1045695 72,50 C72,48.8954305 72.8954305,48 74,48 Z M218,48 C219.104569,48 220,48.8954305 220,50 C220,51.1045695 219.104569,52 218,52 C216.895431,52 216,51.1045695 216,50 C216,48.8954305 216.895431,48 218,48 Z M38,48 C39.1045695,48 40,48.8954305 40,50 C40,51.1045695 39.1045695,52 38,52 C36.8954305,52 36,51.1045695 36,50 C36,48.8954305 36.8954305,48 38,48 Z M182,48 C183.104569,48 184,48.8954305 184,50 C184,51.1045695 183.104569,52 182,52 C180.895431,52 180,51.1045695 180,50 C180,48.8954305 180.895431,48 182,48 Z M110,48 C111.104569,48 112,48.8954305 112,50 C112,51.1045695 111.104569,52 110,52 C108.895431,52 108,51.1045695 108,50 C108,48.8954305 108.895431,48 110,48 Z M254,48 C255.104569,48 256,48.8954305 256,50 C256,51.1045695 255.104569,52 254,52 C252.895431,52 252,51.1045695 252,50 C252,48.8954305 252.895431,48 254,48 Z M20,48 C21.1045695,48 22,48.8954305 22,50 C22,51.1045695 21.1045695,52 20,52 C18.8954305,52 18,51.1045695 18,50 C18,48.8954305 18.8954305,48 20,48 Z M164,48 C165.104569,48 166,48.8954305 166,50 C166,51.1045695 165.104569,52 164,52 C162.895431,52 162,51.1045695 162,50 C162,48.8954305 162.895431,48 164,48 Z M92,48 C93.1045695,48 94,48.8954305 94,50 C94,51.1045695 93.1045695,52 92,52 C90.8954305,52 90,51.1045695 90,50 C90,48.8954305 90.8954305,48 92,48 Z M236,48 C237.104569,48 238,48.8954305 238,50 C238,51.1045695 237.104569,52 236,52 C234.895431,52 234,51.1045695 234,50 C234,48.8954305 234.895431,48 236,48 Z M56,48 C57.1045695,48 58,48.8954305 58,50 C58,51.1045695 57.1045695,52 56,52 C54.8954305,52 54,51.1045695 54,50 C54,48.8954305 54.8954305,48 56,48 Z M200,48 C201.104569,48 202,48.8954305 202,50 C202,51.1045695 201.104569,52 200,52 C198.895431,52 198,51.1045695 198,50 C198,48.8954305 198.895431,48 200,48 Z M128,48 C129.104569,48 130,48.8954305 130,50 C130,51.1045695 129.104569,52 128,52 C126.895431,52 126,51.1045695 126,50 C126,48.8954305 126.895431,48 128,48 Z" id="形状结合备份-5"></path>
                        <path d="M2,96 C3.1045695,96 4,96.8954305 4,98 C4,99.1045695 3.1045695,100 2,100 C0.8954305,100 0,99.1045695 0,98 C0,96.8954305 0.8954305,96 2,96 Z M146,96 C147.104569,96 148,96.8954305 148,98 C148,99.1045695 147.104569,100 146,100 C144.895431,100 144,99.1045695 144,98 C144,96.8954305 144.895431,96 146,96 Z M74,96 C75.1045695,96 76,96.8954305 76,98 C76,99.1045695 75.1045695,100 74,100 C72.8954305,100 72,99.1045695 72,98 C72,96.8954305 72.8954305,96 74,96 Z M218,96 C219.104569,96 220,96.8954305 220,98 C220,99.1045695 219.104569,100 218,100 C216.895431,100 216,99.1045695 216,98 C216,96.8954305 216.895431,96 218,96 Z M38,96 C39.1045695,96 40,96.8954305 40,98 C40,99.1045695 39.1045695,100 38,100 C36.8954305,100 36,99.1045695 36,98 C36,96.8954305 36.8954305,96 38,96 Z M182,96 C183.104569,96 184,96.8954305 184,98 C184,99.1045695 183.104569,100 182,100 C180.895431,100 180,99.1045695 180,98 C180,96.8954305 180.895431,96 182,96 Z M110,96 C111.104569,96 112,96.8954305 112,98 C112,99.1045695 111.104569,100 110,100 C108.895431,100 108,99.1045695 108,98 C108,96.8954305 108.895431,96 110,96 Z M254,96 C255.104569,96 256,96.8954305 256,98 C256,99.1045695 255.104569,100 254,100 C252.895431,100 252,99.1045695 252,98 C252,96.8954305 252.895431,96 254,96 Z M20,96 C21.1045695,96 22,96.8954305 22,98 C22,99.1045695 21.1045695,100 20,100 C18.8954305,100 18,99.1045695 18,98 C18,96.8954305 18.8954305,96 20,96 Z M164,96 C165.104569,96 166,96.8954305 166,98 C166,99.1045695 165.104569,100 164,100 C162.895431,100 162,99.1045695 162,98 C162,96.8954305 162.895431,96 164,96 Z M92,96 C93.1045695,96 94,96.8954305 94,98 C94,99.1045695 93.1045695,100 92,100 C90.8954305,100 90,99.1045695 90,98 C90,96.8954305 90.8954305,96 92,96 Z M236,96 C237.104569,96 238,96.8954305 238,98 C238,99.1045695 237.104569,100 236,100 C234.895431,100 234,99.1045695 234,98 C234,96.8954305 234.895431,96 236,96 Z M56,96 C57.1045695,96 58,96.8954305 58,98 C58,99.1045695 57.1045695,100 56,100 C54.8954305,100 54,99.1045695 54,98 C54,96.8954305 54.8954305,96 56,96 Z M200,96 C201.104569,96 202,96.8954305 202,98 C202,99.1045695 201.104569,100 200,100 C198.895431,100 198,99.1045695 198,98 C198,96.8954305 198.895431,96 200,96 Z M128,96 C129.104569,96 130,96.8954305 130,98 C130,99.1045695 129.104569,100 128,100 C126.895431,100 126,99.1045695 126,98 C126,96.8954305 126.895431,96 128,96 Z" id="形状结合备份-8"></path>
                        <circle id="椭圆形备份-19" cx="146" cy="2" r="2"></circle>
                        <circle id="椭圆形备份-15" cx="74" cy="2" r="2"></circle>
                        <circle id="椭圆形备份-20" cx="218" cy="2" r="2"></circle>
                        <circle id="椭圆形备份-13" cx="38" cy="2" r="2"></circle>
                        <circle id="椭圆形备份-21" cx="182" cy="2" r="2"></circle>
                        <circle id="椭圆形备份-16" cx="110" cy="2" r="2"></circle>
                        <circle id="椭圆形备份-22" cx="254" cy="2" r="2"></circle>
                        <circle id="椭圆形备份-12" cx="20" cy="2" r="2"></circle>
                        <circle id="椭圆形备份-23" cx="164" cy="2" r="2"></circle>
                        <circle id="椭圆形备份-17" cx="92" cy="2" r="2"></circle>
                        <circle id="椭圆形备份-24" cx="236" cy="2" r="2"></circle>
                        <circle id="椭圆形备份-14" cx="56" cy="2" r="2"></circle>
                        <circle id="椭圆形备份-25" cx="200" cy="2" r="2"></circle>
                        <circle id="椭圆形备份-18" cx="128" cy="2" r="2"></circle>
                    </g>
                </g>
                <g id="编组-4" mask="url(#mask-2)">
                    <g transform="translate(84.000000, 155.000000)">
                        <g id="矩形">
                            <use fill="black" fill-opacity="1" filter="url(#filter-12)" xlink:href="#path-11"></use>
                            <use stroke="#E55268" stroke-width="1" fill="#000000" fill-rule="evenodd" xlink:href="#path-11"></use>
                        </g>
                        <text id="Start-Time:-2021-03-" font-family="Rubik-Medium, Rubik" font-size="14" font-weight="400">
                            <tspan x="9" y="16" fill="#E55268">Start Time: 2021-03-26 08:00AM</tspan>
                            <tspan x="233.588" y="16" font-family="PingFangSC-Medium, PingFang SC" fill="#E55268">（</tspan>
                            <tspan x="247.588" y="16" fill="#E55268">EST</tspan>
                            <tspan x="273.6" y="16" font-family="PingFangSC-Medium, PingFang SC" fill="#E55268">）</tspan>
                        </text>
                    </g>
                </g>
                <g id="720,000-CHE" fill-rule="nonzero" mask="url(#mask-2)">
                    <use fill="#D8D8D8" fill-opacity="1" filter="url(#filter-15)" xlink:href="#text-14"></use>
                    <use fill="url(#linearGradient-13)" xlink:href="#text-14"></use>
                    <use fill="#D8D8D8" fill-opacity="1" xlink:href="#text-14"></use>
                </g>
                <text id="Airdrop（Round-3)" mask="url(#mask-2)" font-family="Rubik-Medium, Rubik" font-size="24" font-weight="400" fill="#FFFFFF">
                    <tspan x="122" y="56">Airdrop</tspan>
                    <tspan x="209.384" y="56" font-family="PingFangSC-Medium, PingFang SC">（</tspan>
                    <tspan x="233.384" y="56">Round 3)</tspan>
                </text>
            </g>
        </g>
    </g>
</svg>