<?xml version="1.0" encoding="UTF-8"?>
<svg width="460px" height="201px" viewBox="0 0 460 201" version="1.1" xmlns="http://www.w3.org/2000/svg" xmlns:xlink="http://www.w3.org/1999/xlink">
    <title>bg_airdrop2</title>
    <defs>
        <linearGradient x1="50%" y1="0%" x2="50%" y2="100%" id="linearGradient-1">
            <stop stop-color="#FFFBFB" offset="0%"></stop>
            <stop stop-color="#FFF6F7" offset="100%"></stop>
        </linearGradient>
        <path d="M30,0 L430,0 C446.568542,-1.01490192e-14 460,13.4314575 460,30 L460,201 L460,201 L0,201 L0,30 C-5.58177493e-15,13.4314575 13.4314575,-5.09121799e-16 30,0 Z" id="path-2"></path>
        <path d="M25.5964507,3.99959266 C10.0431419,-2.62613599 1.58746071,1.16060455 0.229407274,15.3598143 C-1.80767287,36.6586289 9.93695154,48.1546096 26.901409,48.1546096 C43.8658665,48.1546096 53.5225577,25.4239204 47.7298882,9.61182391 C43.8681086,-0.929573769 36.4902961,-2.80031752 25.5964507,3.99959266 Z" id="path-4"></path>
        <path d="M26.8090826,4.18457383 C10.5189357,-2.74759478 1.66266666,1.21428251 0.240275444,16.0702057 C-1.89331138,38.3540905 10.4077146,50.3817603 28.1758633,50.3817603 C45.9440119,50.3817603 56.0581888,26.5997767 49.9910917,10.0563708 C45.9463602,-0.972566555 38.2190239,-2.9298322 26.8090826,4.18457383 Z" id="path-6"></path>
    </defs>
    <g id="页面-1" stroke="none" stroke-width="1" fill="none" fill-rule="evenodd">
        <g id="空投2-view" transform="translate(-816.000000, -181.000000)">
            <g id="编组-6" transform="translate(816.000000, 181.000000)">
                <mask id="mask-3" fill="white">
                    <use xlink:href="#path-2"></use>
                </mask>
                <use id="矩形" fill="url(#linearGradient-1)" xlink:href="#path-2"></use>
                <g id="bg_yt_left" opacity="0.300000012" mask="url(#mask-3)">
                    <g transform="translate(340.000000, -73.000000)">
                        <circle id="椭圆形备份" fill-opacity="0.1" fill="#E55268" cx="75.6187726" cy="75.6187726" r="75.6187726"></circle>
                        <g id="编组-3" stroke-width="1" fill="none" transform="translate(83.714198, 110.154373) rotate(-30.000000) translate(-83.714198, -110.154373) translate(30.714198, 50.654373)">
                            <path d="M20.0645675,75.6875795 C19.428141,72.5042192 19.0475195,70.5156303 18.922703,69.7218126 C12.7575332,30.5121105 26.1999916,6.92351739 61.8550219,0" id="路径-4" stroke="#25030A" stroke-width="6.26379969" stroke-linecap="round"></path>
                            <path d="M61.8550219,0 C42.0012023,23.2242035 42.5137089,47.5834245 63.3925419,73.077663" id="路径-5" stroke="#25030A" stroke-width="6.26379969" stroke-linecap="round"></path>
                            <g id="编组-2" transform="translate(0.000000, 64.725930)">
                                <g id="编组" transform="translate(1.062272, 0.076401)">
                                    <mask id="mask-5" fill="white">
                                        <use xlink:href="#path-4"></use>
                                    </mask>
                                    <use id="路径" fill="#E55268" xlink:href="#path-4"></use>
                                    <path d="M2.10720193,29.6042771 C20.0286288,37.0940827 36.1231141,32.7395445 50.3906578,16.5406626 C54.3055326,34.045906 45.6928081,47.8933373 25.5964507,49.7222434 C12.1988792,50.9415141 4.36912959,44.2355253 2.10720193,29.6042771 Z" id="路径-3" fill="#DA374F" mask="url(#mask-5)"></path>
                                </g>
                                <path d="M31.925573,9.28393683 C20.7335349,-0.385243106 11.6576272,-1.91393879 4.69784976,4.69784976 C-5.74181638,14.6155326 1.04396661,48.5444476 27.7696817,48.1558365 C48.8088813,45.8078694 51.1465702,22.8499689 51.1465702,16.5887233 C51.1465702,10.3274778 45.4322197,-8.19537378 25.9514792,4.3271174" id="路径-2" stroke="#25030A" stroke-width="4.95884142" stroke-linecap="round"></path>
                                <path d="M15.9204909,5.33386395 C9.83068562,4.55845397 6.43779412,7.73763491 5.74181638,14.8714068 C10.1786745,9.6515737 12.5275994,7.42179718 20.357349,6.89981387 C19.8353657,6.551825 18.356413,6.02984169 15.9204909,5.33386395 Z" id="路径-8" fill="#FFEAED"></path>
                            </g>
                            <g id="编组-2备份" transform="translate(73.530199, 86.597139) rotate(-15.000000) translate(-73.530199, -86.597139) translate(47.030199, 61.097139)">
                                <g id="编组">
                                    <mask id="mask-7" fill="white">
                                        <use xlink:href="#path-6"></use>
                                    </mask>
                                    <use id="路径" fill="#E55268" xlink:href="#path-6"></use>
                                    <path d="M2.20703062,30.9734749 C20.9774851,38.809684 37.8344466,34.2537485 52.7779153,17.3056682 C56.8782572,35.6205291 47.8575049,50.1084042 26.8090826,52.0218971 C12.7768011,53.2975591 4.57611711,46.2814183 2.20703062,30.9734749 Z" id="路径-3" fill="#DA374F" mask="url(#mask-7)" transform="translate(27.975088, 34.737379) rotate(10.000000) translate(-27.975088, -34.737379) "></path>
                                </g>
                                <path d="M32.5495614,9.65169649 C21.3174657,0.322832441 12.2055946,-1.40842307 5.21394809,4.45792996 C-5.27352162,13.2574595 0.0201815564,51.4751849 28.1758633,50.3817603 C50.3177101,47.9215551 52.7779153,23.8662154 52.7779153,17.3056682 C52.7779153,10.745121 46.7640803,-8.66316443 26.2623703,4.45792996" id="路径-2" stroke="#25030A" stroke-width="5.46712266" stroke-linecap="round"></path>
                            </g>
                            <path d="M59.3569589,71.6103867 C54.1371259,70.9394062 51.2289331,73.690426 50.6323808,79.863446 C54.435402,75.3466021 56.4487662,73.4171242 63.1599802,72.9654398 C62.7125659,72.6643169 61.4448921,72.2126325 59.3569589,71.6103867 Z" id="路径-8备份" fill="#FFEAED" transform="translate(56.896180, 75.687580) rotate(-9.000000) translate(-56.896180, -75.687580) "></path>
                            <path d="M55.7181151,9.24974306 C55.7181151,9.24974306 49.6522093,43.2415275 85.4961986,37.4380521 C87.7019826,3.44626766 55.7181151,9.24974306 55.7181151,9.24974306 Z" id="路径-6" stroke="#25030A" stroke-width="5.21983307" fill="#39B465"></path>
                            <path d="M56.3741972,10.4396661 C64.1642638,14.6887934 69.2101025,19.734632 71.5117131,25.577182" id="路径-7" stroke="#25030A" stroke-width="4.17586646" stroke-linecap="round"></path>
                        </g>
                    </g>
                </g>
                <g id="编组-4" mask="url(#mask-3)">
                    <g transform="translate(96.000000, 143.000000)">
                        <rect id="矩形" fill="#E55268" fill-rule="evenodd" opacity="0.100000001" x="0" y="0" width="268" height="30" rx="15"></rect>
                        <text id="Start-Time:-2021-3-2" fill="none" font-family="SFProDisplay-Bold, SF Pro Display" font-size="14" font-weight="bold">
                            <tspan x="22" y="20" fill="#E55268">Start Time: 2021-3-21 09:00 (EST)</tspan>
                        </text>
                    </g>
                </g>
                <text id="600,000-CHE" stroke="#8E0F1A" stroke-width="3" mask="url(#mask-3)" font-family="Avenir-BlackOblique, Avenir" font-size="48" font-style="italic" font-weight="700" line-spacing="27.0458716" fill="#E55268">
                    <tspan x="77" y="136">600,000 CHE </tspan>
                </text>
                <text id="Airdrop（Round-2)" mask="url(#mask-3)" font-family="SFProDisplay-Bold, SF Pro Display" font-size="28" font-weight="bold" fill="#25030A">
                    <tspan x="110" y="47">Airdrop</tspan>
                    <tspan x="205.730469" y="47" font-family="PingFangSC-Semibold, PingFang SC" font-weight="500">（</tspan>
                    <tspan x="233.730469" y="47">Round 2)</tspan>
                </text>
                <g id="编组-9备份" opacity="0.300000012" mask="url(#mask-3)">
                    <g transform="translate(286.000000, 9.500000) rotate(-59.000000) translate(-286.000000, -9.500000) translate(271.000000, -18.000000)">
                        <path d="M19.7608627,39.2045455 C22.8031921,37.3415363 25.1895558,34.5006272 26.9199536,30.6818182 C28.6503515,26.8630091 29.5594424,22.431191 29.6472264,17.3863636 C26.4731773,19.9961154 24.0868136,21.7006609 22.4881354,22.5 C20.8894572,23.2993391 19.1849118,23.6402482 17.3744991,23.5227273 C18.3933115,21.371901 19.4147339,19.2155649 20.4387661,17.0537191 C21.9748144,13.8109505 25.8972264,11.5909091 22.4881354,8.18181818 C20.2154082,5.90909091 15.6699536,3.18181818 8.85177181,0 C3.6305976,3.54366526 1.1305976,6.72548344 1.35177181,9.54545455 C1.68353312,13.7754112 12.9426809,18.75 9.87449908,19.7727273 C6.80631726,20.7954545 2.46011981,15.3409091 1.35177181,15.3409091 C0.243423806,15.3409091 -1.03459183,17.3863636 1.35177181,19.7727273 C3.73813545,22.1590909 12.2980662,25.3760866 12.6017718,26.5909091 C12.7456328,27.1663532 11.2170442,28.3148865 7.82904454,27.6136364 C6.90885715,27.4231754 4.63612987,26.2868118 1.01086272,24.2045455 C3.15390564,29.2371616 5.767542,32.9871616 8.85177181,35.4545455 C11.9360016,37.9219293 15.5723653,39.1719293 19.7608627,39.2045455 Z" id="路径-10" stroke="none" fill="#E55268" fill-rule="evenodd"></path>
                        <path d="M9.88636364,6.47727273 C12.4426439,12.5704954 14.6017348,19.3886772 16.3636364,26.9318182 C18.1255379,34.4749591 18.1255379,43.5658682 16.3636364,54.2045455" id="路径-11" stroke="#E55268" stroke-width="0.681818182" fill="none"></path>
                    </g>
                </g>
                <g id="编组-9备份-3" opacity="0.300000012" mask="url(#mask-3)">
                    <g transform="translate(58.500000, 52.000000) scale(-1, 1) rotate(-59.000000) translate(-58.500000, -52.000000) translate(50.000000, 37.000000)">
                        <path d="M11.3187146,21.0412546 C12.9605974,20.0433297 14.2484689,18.5215906 15.1823291,16.4760373 C16.1161894,14.4304839 16.6068071,12.0565709 16.6541823,9.35429813 C14.9412131,10.7522174 13.6533416,11.6652608 12.7905678,12.0934286 C11.9277939,12.5215963 11.0078857,12.704205 10.0308431,12.6412546 C10.5806753,11.4891599 11.131916,10.3341138 11.6845652,9.17611638 C12.5135389,7.4391203 14.6303842,6.2499503 12.7905678,4.42386334 C11.5640235,3.20647204 9.11093488,1.74560247 5.431302,0.0412546474 C2.61354137,1.93942665 1.26434264,3.64377447 1.38370582,5.15429813 C1.5627506,7.42008361 7.63908173,10.0847329 5.98324693,10.632559 C4.32741213,11.1803851 1.98185851,8.25864595 1.38370582,8.25864595 C0.785553137,8.25864595 0.0958343122,9.35429813 1.38370582,10.632559 C2.67157733,11.9108199 7.29119639,13.6340106 7.45510009,14.2847329 C7.53273892,14.5929708 6.70779102,15.2081852 4.87935706,14.832559 C4.3827508,14.7305382 3.15620651,14.1218425 1.19972418,13.006472 C2.35628049,15.7022038 3.76680643,17.7108995 5.431302,19.032559 C7.09579757,20.3542185 9.05826844,21.0237837 11.3187146,21.0412546 Z" id="路径-10" stroke="none" fill="#E55268" fill-rule="evenodd"></path>
                        <path d="M6.22928712,3.62972441 C7.5404188,6.94908001 8.64782964,10.6633657 9.55151963,14.7725816 C10.4552096,18.8817974 10.4552096,23.8341783 9.55151963,29.6297244" id="路径-11" stroke="#E55268" stroke-width="0.681818182" fill="none"></path>
                    </g>
                </g>
                <g id="编组-9备份-2" opacity="0.300000012" mask="url(#mask-3)">
                    <g transform="translate(41.000000, 201.000000) scale(-1, 1) translate(-41.000000, -201.000000) translate(16.000000, 161.000000)">
                        <path d="M33.3266635,53.8461538 C38.4575472,51.2873721 42.4821457,47.3854768 45.4004589,42.1404682 C48.3187721,36.8954596 49.8519525,30.8085031 50,23.8795987 C44.6469713,27.4640069 40.6223728,29.8051441 37.9262046,30.90301 C35.2300364,32.000876 32.7231033,31.9306419 30.4054054,30.6923077 C31.3880707,28.8151416 32.7429178,26.3919465 34.4699464,23.4227224 C37.0604895,18.9688863 43.675631,15.9197324 37.9262046,11.2374582 C34.0932537,8.11594203 26.4273518,4.37012263 14.928499,0 C6.12299707,4.86710769 1.90675106,9.23723032 2.279761,13.1103679 C2.83927592,18.9200743 21.8278107,25.7525084 16.653327,27.1571906 C11.4788432,28.5618729 4.14898814,21.0702341 2.279761,21.0702341 C0.41053386,21.0702341 -1.74483747,23.8795987 2.279761,27.1571906 C6.30435947,30.4347826 20.740669,34.8532204 21.2528681,36.5217391 C21.4954894,37.3120926 18.9175272,38.8895654 13.2036711,37.9264214 C11.6517766,37.6648296 7.81882564,36.1040715 1.70481836,33.2441472 C5.31905683,40.1562799 9.72695039,45.3067816 14.928499,48.6956522 C20.1300477,52.0845227 26.2627692,53.8013566 33.3266635,53.8461538 Z" id="路径-10" stroke="none" fill="#E55268" fill-rule="evenodd"></path>
                        <path d="M20.1923077,14.4230769 C24.6047701,22.7705688 28.3316335,32.1112282 31.3728979,42.4450549 C34.4141623,52.7788817 34.4141623,65.2330942 31.3728979,79.8076923" id="路径-11" stroke="#E55268" stroke-width="0.961538462" fill="none"></path>
                    </g>
                </g>
            </g>
        </g>
    </g>
</svg>