<?xml version="1.0" encoding="UTF-8"?>
<svg width="460px" height="201px" viewBox="0 0 460 201" version="1.1" xmlns="http://www.w3.org/2000/svg" xmlns:xlink="http://www.w3.org/1999/xlink">
    <title>bg_airdrop1</title>
    <defs>
        <path d="M30,0 L430,0 C446.568542,-1.01490192e-14 460,13.4314575 460,30 L460,201 L460,201 L0,201 L0,30 C-5.58177493e-15,13.4314575 13.4314575,-5.09121799e-16 30,0 Z" id="path-1"></path>
        <linearGradient x1="38.4679244%" y1="43.6509522%" x2="52.8166263%" y2="56.1750172%" id="linearGradient-3">
            <stop stop-color="#FFEFD6" offset="0%"></stop>
            <stop stop-color="#FED696" offset="100%"></stop>
        </linearGradient>
        <text id="text-4" font-family="Rubik-BoldItalic, Rubik" font-size="30" font-style="italic" font-weight="bold">
            <tspan x="24" y="68">Airdrop list for Round 1 </tspan>
            <tspan x="24" y="104">(The Joint Beta)</tspan>
        </text>
        <path d="M6.79082634,1.03291864 C2.66448005,-0.678215266 0.42115878,0.29973304 0.0608625381,3.96676355 C-0.479581825,9.46730932 2.63630739,12.4362148 7.13703625,12.4362148 C11.6377651,12.4362148 14.1997185,6.56587893 12.6629034,2.48231079 C11.6383599,-0.240067964 9.68100094,-0.723198683 6.79082634,1.03291864 Z" id="path-5"></path>
        <path d="M7.03651225,1.10703091 C2.76087851,-0.72687745 0.436395921,0.321238991 0.0630644892,4.25138023 C-0.496932658,10.1465921 2.73168659,13.3285176 7.39524772,13.3285176 C12.0588088,13.3285176 14.7134513,7.03698305 13.1210357,2.66041746 C12.0594252,-0.257292925 10.0312507,-0.775088443 7.03651225,1.10703091 Z" id="path-7"></path>
    </defs>
    <g id="页面-1" stroke="none" stroke-width="1" fill="none" fill-rule="evenodd">
        <g id="空投1-view（默认）" transform="translate(-816.000000, -260.000000)">
            <g id="bg_airdrop1" transform="translate(816.000000, 260.000000)">
                <mask id="mask-2" fill="white">
                    <use xlink:href="#path-1"></use>
                </mask>
                <use id="矩形" fill="#E55268" xlink:href="#path-1"></use>
                <ellipse id="椭圆形" fill="#231014" mask="url(#mask-2)" transform="translate(175.500000, 73.923394) rotate(-30.000000) translate(-175.500000, -73.923394) " cx="175.5" cy="73.9233938" rx="249.5" ry="175"></ellipse>
                <g id="编组-5备份" opacity="0.0707542783" mask="url(#mask-2)" fill="#FFFFFF">
                    <g transform="translate(331.000000, 40.000000) rotate(13.000000) translate(-331.000000, -40.000000) translate(278.000000, -54.000000)">
                        <path d="M52.8850174,0.329486957 C81.0030913,0.329486957 103.9583,22.6406695 105.321023,50.680056 C105.363486,51.0755635 105.385017,51.4736274 105.385017,51.8743475 C105.385017,54.7538494 104.273224,57.4961936 102.236018,60.0250906 L55.0910174,128.063487 L52.3980174,133.065487 L52.4068693,133.245071 L52.2990174,133.249487 L52.2918863,133.264659 L52.2660174,133.250487 L50.6660174,133.320487 L50.6527503,133.329487 L50.6470174,133.321487 L50.4995292,133.327577 L50.4880174,133.075487 L3.14424307,59.5235326 C1.44356304,57.2526854 0.482636075,54.8174005 0.392067511,52.2711371 L0.385017449,51.8743475 C0.385017449,51.176377 0.450340071,50.4864651 0.578330941,49.8056983 L0.49319095,49.8664826 L0.49319095,49.8664826 C2.25667286,22.2107756 25.039152,0.329486957 52.8850174,0.329486957 Z M65.9708613,74.7512419 C61.7859474,75.226989 57.4009681,75.4790033 52.8850174,75.4790033 C51.9008823,75.4790033 50.9229672,75.4670349 49.9519871,75.4433908 L52.1070174,126.219487 Z M83.6084105,71.0715273 C78.9295114,72.5784972 73.6725718,73.7453601 68.0166924,74.4988068 L54.2590174,125.574487 Z M33.6609509,73.869945 L50.1110174,124.180487 L48.039458,75.3814319 C43.0098365,75.1778308 38.1828839,74.6600372 33.6609509,73.869945 Z M19.1458062,70.0232376 L47.9860174,123.829487 L31.5210651,73.4713065 C27.0285334,72.5814602 22.8676723,71.4174607 19.1458062,70.0232376 Z M8.81323579,64.7937942 L40.8460174,114.557487 L16.3794606,68.9096498 C13.5261474,67.676043 10.9845294,66.2960918 8.81323579,64.7937942 Z M96.2892137,65.2441759 C93.4826425,67.0908637 90.1067069,68.7426193 86.2759061,70.1525763 L63.2170174,112.973487 Z M60.5213811,31.1600578 C55.936381,31.1600578 51.6945739,32.6431568 48.2417809,35.1593622 L49.8700232,73.5135461 C50.8674165,73.5391162 51.8726856,73.5520926 52.8850174,73.5520926 C57.6081797,73.5520926 62.1775969,73.2696204 66.5107147,72.7435508 L75.891994,37.9135028 C72.058128,33.7585999 66.5904092,31.1600578 60.5213811,31.1600578 Z M35.2259265,32.1235131 C30.0075998,32.1235131 25.2908185,34.3465028 21.9106898,37.9271332 L32.9787377,71.7824842 C37.6491634,72.6515911 42.6834627,73.2264904 47.9575872,73.4487679 L46.3663465,35.9543779 C43.2601804,33.548413 39.4037946,32.1235131 35.2259265,32.1235131 Z M84.3850174,36.9407898 C81.9135175,36.9407898 79.5987198,37.64216 77.6128599,38.8652953 L68.562131,72.4739041 C74.6066604,71.6179481 80.147992,70.2830731 84.9495936,68.5806618 L96.9814747,46.2342378 C95.1415523,40.8187111 90.1964936,36.9407898 84.3850174,36.9407898 Z M17.5668356,38.8677005 C12.5903292,38.8677005 8.29803063,41.8244868 6.32057521,46.0924032 L17.7383173,67.3953111 C21.5681855,68.9917483 25.9816842,70.3355988 30.8292357,71.3564267 L20.7458519,39.2824931 C19.7312435,39.0118705 18.6657202,38.8677005 17.5668356,38.8677005 Z M97.9310174,48.504487 L87.6832126,67.539225 C93.4497756,65.1801861 97.9271847,62.2541351 100.618645,58.9950121 L101.261874,58.0663759 L101.307864,58.0983057 C102.718032,56.1181466 103.475927,54.0269148 103.475927,51.8743475 C103.475927,51.220791 103.406061,50.5728886 103.269287,49.9320323 C101.730686,49.0755345 99.9775316,48.5666288 98.1119739,48.5079592 L97.9310174,48.504487 Z M4.68047199,48.5022539 C4.04129439,48.5022539 3.42168107,48.5868004 2.83201064,48.7454181 C2.47772284,49.7701838 2.29410836,50.8148358 2.29410836,51.8743475 C2.29410836,53.5102587 2.73184694,55.1107441 3.5609621,56.6539721 L3.57183009,56.6484608 L4.78300867,58.5322847 C6.93369139,61.337751 10.4000406,63.9090368 14.8740123,66.1010849 L5.46401745,48.545487 L5.21603478,48.5221684 C5.03922295,48.5089702 4.86062456,48.5022539 4.68047199,48.5022539 Z" id="形状结合" stroke="none" fill-rule="nonzero"></path>
                        <path d="M69.8794747,126.837416 L83.4224742,160.401143 L50.7234183,167.417021 L37.6533389,131.992482 L69.8794747,126.837416 Z" id="路径-12" stroke="#151515" stroke-width="1" fill-rule="evenodd" transform="translate(60.541134, 147.138795) rotate(-345.000000) translate(-60.541134, -147.138795) "></path>
                        <path d="M35.00907,126.331505 L48.0058116,161.557272 L35.2647503,175.596749 L23.1715564,143.086367 L35.00907,126.331505 Z" id="路径-13" stroke="#151515" stroke-width="1" fill-rule="evenodd" transform="translate(35.595403, 150.904056) rotate(-345.000000) translate(-35.595403, -150.904056) "></path>
                        <path d="M76.5395573,160.667116 L67.7851115,172.42358 L31.9517721,181.156692 L44.250519,167.246784 L76.5395573,160.667116 Z" id="路径-14" stroke="#151515" stroke-width="1" fill-rule="evenodd" transform="translate(54.121725, 170.967912) rotate(-345.000000) translate(-54.121725, -170.967912) "></path>
                    </g>
                </g>
                <text id="CHERRYSWAP" mask="url(#mask-2)" transform="translate(455.000000, 107.500000) rotate(-90.000000) translate(-455.000000, -107.500000) " font-family="Rubik-MediumItalic, Rubik" font-size="26" font-style="italic" font-weight="400" fill="#FFFFFF">
                    <tspan x="366" y="116">CHERRYSWAP</tspan>
                </text>
                <g id="编组-5备份-2" opacity="0.0704520089" mask="url(#mask-2)" fill="#FFFFFF">
                    <g transform="translate(65.000000, 151.000000) rotate(-23.000000) translate(-65.000000, -151.000000) translate(-46.000000, -48.000000)">
                        <path d="M110.997391,0.421792376 C170.174308,0.421792376 218.486435,47.7203225 221.361978,107.165274 C221.451496,108.008043 221.497391,108.857369 221.497391,109.712399 C221.497391,115.819945 219.155692,121.636473 214.864995,127.000054 L115.644391,271.252792 L109.974391,281.860792 L109.991003,282.242804 L109.765391,282.252792 L109.748991,282.284337 L109.697391,282.255792 L106.329391,282.401792 L106.299,282.421792 L106.286391,282.403792 L105.976506,282.417742 L105.953391,281.882792 L6.30260953,125.927886 C2.7245129,121.113886 0.702813846,115.951403 0.51222931,110.553712 L0.497390607,109.712399 C0.497390607,108.231788 0.635009865,106.768281 0.904653587,105.324183 L0.728009095,105.452964 L0.728009095,105.452964 C4.43885086,46.8147013 52.3897396,0.421792376 110.997391,0.421792376 Z M138.539159,158.218389 C129.731158,159.227055 120.502098,159.761368 110.997391,159.761368 C108.926042,159.761368 106.867784,159.735992 104.824123,159.685861 L109.362391,267.340792 Z M175.662498,150.416298 C165.814617,153.611474 154.750131,156.085537 142.84599,157.683053 L113.891391,265.978792 Z M70.5363864,156.349871 L105.158391,263.021792 L100.796985,159.55442 C90.2118258,159.122694 80.0531711,158.024909 70.5363864,156.349871 Z M39.9849924,148.193734 L100.685391,262.276792 L66.0306991,155.504316 C56.5754862,153.61764 47.8182977,151.149736 39.9849924,148.193734 Z M18.2363726,137.105225 L85.6543906,242.612792 L34.1615479,145.832216 C28.1559601,143.216558 22.8064335,140.290599 18.2363726,137.105225 Z M202.355034,138.059034 C196.447209,141.975298 189.340592,145.478127 181.276293,148.4681 L132.743391,239.262792 Z M127.070118,65.7918748 C117.419966,65.7918748 108.492126,68.9363728 101.224787,74.2727625 L104.652132,155.594023 C106.751215,155.648229 108.866871,155.675738 110.997391,155.675738 C120.938649,155.675738 130.556303,155.076797 139.676588,153.961344 L159.420703,80.1102318 C151.351372,71.3011581 139.843505,65.7918748 127.070118,65.7918748 Z M73.8292088,67.8346899 C62.8459052,67.8346899 52.9182291,72.5480695 45.8042635,80.141047 L69.1010972,151.923952 C78.9307049,153.766534 89.5260693,154.985378 100.626147,155.456651 L97.2752717,75.9558174 C90.7378536,70.8553307 82.6217886,67.8346899 73.8292088,67.8346899 Z M177.297391,78.0487653 C172.095294,78.0487653 167.223041,79.5359825 163.044226,82.1281257 L143.994114,153.389635 C156.7161,151.574787 168.379023,148.744536 178.485074,145.135029 L203.809321,97.7518537 C199.936238,86.2702577 189.528519,78.0487653 177.297391,78.0487653 Z M36.661027,82.1343955 C26.1866904,82.1343955 17.1524419,88.4036421 12.9899037,97.4529555 L37.0203271,142.620826 C45.0818728,146.00614 54.3720716,148.855805 64.5760103,151.020433 L42.4327606,82.7850256 C40.5760115,82.3591677 38.6443351,82.1343955 36.661027,82.1343955 Z M205.809391,102.565792 L184.238334,142.927051 C196.377185,137.92464 205.802048,131.719689 211.466907,124.808401 L212.819156,122.841361 L212.91615,122.908784 C215.884091,118.710333 217.479209,114.276388 217.479209,109.712399 C217.479209,108.325639 217.331942,106.950885 217.043643,105.591095 C213.727892,103.734635 209.939335,102.648023 205.908268,102.56738 L205.809391,102.565792 Z M9.5382997,102.562546 C8.19326787,102.562546 6.88939677,102.741734 5.64851702,103.077914 C4.90220533,105.249976 4.51557243,107.465427 4.51557243,109.712399 C4.51557243,113.181842 5.43734319,116.576136 7.18323461,119.848959 L7.20487246,119.834955 L9.75208107,123.826555 C14.2784834,129.775868 21.574829,135.228572 30.9925195,139.876988 L11.1883906,102.653792 L10.8043817,102.615864 C10.3869546,102.580554 9.96469546,102.562546 9.5382997,102.562546 Z" id="形状结合" stroke="none" fill-rule="nonzero"></path>
                        <path d="M144.02253,268.442828 L173.070635,340.901362 L103.718691,355.712139 L75.6525345,279.243413 L144.02253,268.442828 Z" id="路径-12" stroke="#151515" stroke-width="1" fill-rule="evenodd" transform="translate(124.364570, 312.089238) rotate(-345.000000) translate(-124.364570, -312.089238) "></path>
                    </g>
                </g>
                <g id="Airdrop-list-for-Rou" fill-rule="nonzero" mask="url(#mask-2)">
                    <use fill="#D8D8D8" xlink:href="#text-4"></use>
                    <use fill="url(#linearGradient-3)" xlink:href="#text-4"></use>
                    <use fill="#D8D8D8" fill-opacity="1" xlink:href="#text-4"></use>
                </g>
                <text id="Activity-time：-March" mask="url(#mask-2)" font-family="Rubik-MediumItalic, Rubik" font-size="14" font-style="italic" font-weight="400" fill="#FFECEF">
                    <tspan x="20" y="139">Activity time</tspan>
                    <tspan x="107.906" y="139" font-family="PingFangSC-Medium, PingFang SC">：</tspan>
                    <tspan x="20" y="159">March 11, 20:00 ~ March 16, 20:00 (HKT)</tspan>
                </text>
                <g id="编组-4" mask="url(#mask-2)">
                    <g transform="translate(372.000000, 137.000000)">
                        <circle id="椭圆形" fill="#FFCCD3" cx="25" cy="25" r="25"></circle>
                        <g id="编组-3" stroke-width="1" fill="none" transform="translate(11.000000, 9.000000)">
                            <path d="M16.4276934,0.0152900319 C16.8703712,-0.0716121914 17.2989164,0.220736687 17.3848758,0.668269527 C17.4708353,1.11580237 17.181658,1.54904759 16.7389802,1.63594981 C8.10747197,3.33040397 4.70111888,8.90287794 6.15170367,18.7733564 L6.20246111,19.1070075 C6.23774318,19.3226078 6.33413598,19.8299098 6.48890581,20.6125481 C6.57731087,21.0595937 6.29050673,21.4944483 5.84831082,21.5838229 C5.40611492,21.6731975 4.97597785,21.3832479 4.88757279,20.9362022 L4.71981004,20.0771411 C4.65018958,19.7140325 4.60513905,19.466479 4.58394556,19.3302128 C2.89008925,8.43935147 6.79422002,1.90644029 16.4276934,0.0152900319 Z" id="路径-4" fill="#25030A" fill-rule="nonzero"></path>
                            <path d="M16.1045973,0.290314312 C16.4067703,-0.0576735172 16.9382739,-0.0986129135 17.2917438,0.198873611 C17.6452137,0.496360135 17.686798,1.01962048 17.384625,1.36760831 C12.3194871,7.20071141 12.4477068,13.200421 17.8093964,19.6458097 C18.104037,20 18.0512368,20.5222817 17.6914641,20.8123526 C17.3316913,21.1024234 16.8011845,21.0504422 16.5065439,20.6962492 C10.641773,13.646097 10.49442,6.75109444 16.1045973,0.290314312 Z" id="路径-5" fill="#25030A" fill-rule="nonzero"></path>
                            <g id="编组-2" transform="translate(0.000000, 17.400000)">
                                <g id="编组" transform="translate(0.996110, 0.714071)">
                                    <mask id="mask-6" fill="white">
                                        <use xlink:href="#path-5"></use>
                                    </mask>
                                    <use id="路径" fill="#E55268" xlink:href="#path-5"></use>
                                    <path d="M0.559047913,7.64548094 C5.31366404,9.57976787 9.5835863,8.45518244 13.3688147,4.27172466 C14.4074444,8.79255807 12.122459,12.3687397 6.79082634,12.8410656 C3.23640457,13.1559495 1.15914509,11.424088 0.559047913,7.64548094 Z" id="路径-3" fill="#DA374F" mask="url(#mask-6)"></path>
                                </g>
                                <path d="M7.54812611,1.08914958 C9.96643699,-0.320414834 11.9546791,-0.224398036 13.3437805,1.12233578 C14.3578884,2.10551344 14.9414454,3.74275266 14.9414454,4.97847626 C14.9414454,6.39465003 14.6162512,8.1680911 13.8707807,9.70679234 C12.7771635,11.9640919 10.9276144,13.4400713 8.23725554,13.7578793 L8.12303462,13.7706788 L8.09124154,13.7711288 C4.56898643,13.8209844 1.93160517,11.8301847 0.709915707,8.74784396 C-0.375533969,6.00923821 -0.0876480157,2.91856453 1.50758281,1.44335193 C3.13802877,-0.0644263794 5.1365254,-0.158695299 7.41006927,1.07216211 L7.49639942,1.11951554 L7.54812611,1.08914958 Z M12.4153989,2.029725 C11.5817671,1.22151895 10.4230436,1.08277656 8.80722224,1.87315388 L8.72862974,1.91203589 L8.76190618,1.93621712 C9.01132361,2.11893165 9.26357183,2.31605194 9.51854335,2.52747585 L9.61428511,2.6074301 C9.8891926,2.83862301 9.91951585,3.24297853 9.68201397,3.51058342 C9.4445121,3.77818831 9.02912224,3.80770606 8.75421474,3.57651314 C6.01127566,1.26974417 3.96775492,0.9346881 2.41369999,2.3718227 C1.26260628,3.43631313 1.02516194,5.98545781 1.93732587,8.28686103 C2.96146151,10.8707706 5.09497448,12.4993391 7.98432671,12.4913865 L8.0398105,12.4908817 L8.08505901,12.4858071 C10.2651743,12.2262404 11.7358838,11.0677118 12.6492372,9.22508083 L12.6808725,9.16052586 C13.3338267,7.81278431 13.6258477,6.22025279 13.6258477,4.97847626 C13.6258477,4.06039158 13.1590283,2.7506737 12.4153989,2.029725 Z" id="路径-2" fill="#25030A" fill-rule="nonzero"></path>
                                <path d="M4.93804665,2.07184177 C3.32240039,1.87158752 2.42225462,2.69262994 2.23760933,4.53496903 C3.41472303,3.18691603 4.03790087,2.61106296 6.11516035,2.47625766 C5.97667638,2.38638747 5.58430515,2.25158217 4.93804665,2.07184177 Z" id="路径-8" fill="#FFEAED"></path>
                            </g>
                            <g id="编组-2备份" transform="translate(20.216472, 23.577984) rotate(-15.000000) translate(-20.216472, -23.577984) translate(12.216472, 16.077984)">
                                <g id="编组" transform="translate(0.708579, 0.802506)">
                                    <mask id="mask-8" fill="white">
                                        <use xlink:href="#path-7"></use>
                                    </mask>
                                    <use id="路径" fill="#E55268" xlink:href="#path-7"></use>
                                    <path d="M0.575714571,8.1846515 C5.50631868,10.2639182 9.93015874,9.0649342 13.8472347,4.58769937 C14.9302226,9.4332144 12.5671627,13.2618651 7.04199597,13.7604627 C3.35855151,14.092861 1.20312437,12.2342573 0.575714571,8.1846515 Z" id="路径-3" fill="#DA374F" mask="url(#mask-8)" transform="translate(7.339662, 9.192992) rotate(10.000000) translate(-7.339662, -9.192992) "></path>
                                </g>
                                <path d="M7.44655542,1.22699702 L7.45410631,1.22235867 C10.0189297,-0.347111976 12.1319281,-0.256450355 13.6044019,1.21523737 C14.6676026,2.27787036 15.2785365,4.044898 15.2785365,5.38072793 C15.2785365,6.90603966 14.9389832,8.8150232 14.1601699,10.4722328 C13.0166068,12.9055809 11.0814067,14.4974841 8.26856483,14.8397754 L8.15743288,14.8526349 L8.13166902,14.8536433 C4.44111632,14.9981032 1.77063466,12.7612292 0.60683963,9.26809525 C-0.405970172,6.22814388 -0.0264773349,2.81684362 1.61590515,1.42786341 C3.2314379,0.061590308 5.18563882,0.0169200751 7.40506876,1.20451491 L7.44655542,1.22699702 Z M12.5940351,2.24225306 C11.7429192,1.39159159 10.5616364,1.23979186 8.91130922,2.0608621 L8.82399002,2.1049791 L8.8610035,2.13195347 C9.10945705,2.31427831 9.36075006,2.51040675 9.6147934,2.72023035 L9.7101884,2.79955595 C10.015011,3.05473681 10.0568823,3.51067037 9.80371065,3.81791205 C9.55053899,4.12515373 9.0981953,4.16735736 8.79337273,3.9121765 C6.08137226,1.64183731 4.05435306,1.25364718 2.53823712,2.53584244 C1.43366516,3.46999061 1.1220478,6.2711512 1.96713075,8.80766997 C2.93269382,11.7058102 5.03749222,13.4897448 7.98636719,13.4113494 L8.0515635,13.4091019 L8.10193593,13.4032152 C10.3621975,13.1263573 11.8850398,11.8895987 12.8313221,9.92049084 L12.8633587,9.85307878 C13.5405285,8.41215264 13.8435946,6.70830172 13.8435946,5.38072793 C13.8435946,4.40478834 13.3609192,3.00872779 12.5940351,2.24225306 Z" id="路径-2" fill="#25030A" fill-rule="nonzero"></path>
                            </g>
                            <path d="M16.1858392,19.7465079 C14.8157526,19.5707139 14.051413,20.2992932 13.8928203,21.9322458 C14.8926372,20.7363189 15.4218034,20.2253251 17.1837663,20.1036948 C17.0664087,20.024192 16.7337663,19.9051297 16.1858392,19.7465079 Z" id="路径-8备份" fill="#FFEAED" transform="translate(15.538293, 20.826563) rotate(-9.000000) translate(-15.538293, -20.826563) "></path>
                            <path d="M15.0999338,3.10033878 C15.0999338,3.10033878 13.5371257,12.1706863 22.771901,10.6220904 C23.3401949,1.55174286 15.0999338,3.10033878 15.0999338,3.10033878 Z" id="路径-6备份" fill="#39B465"></path>
                            <path d="M16.5524794,2.40010362 C16.1769813,2.40168931 15.8266191,2.42176209 15.5097085,2.45423865 L15.383351,2.46801812 C15.2522291,2.48323194 15.1524106,2.49785407 15.0877478,2.50919098 L14.6052202,2.59378935 L14.5190671,3.06026801 C14.5041743,3.14090572 14.4840468,3.27485084 14.4640186,3.45454253 L14.4594009,3.49681847 C14.3356721,4.65281602 14.3910872,5.92363468 14.760587,7.14094658 C15.1904345,8.55707303 16.0041339,9.70703801 17.2725878,10.4611468 C18.7624319,11.3468743 20.7845678,11.6225955 23.3775187,11.216948 L23.9324874,11.1301274 L23.9688927,10.5880543 C24.2498791,6.40417635 22.6112628,3.90935044 19.7033158,2.89098872 C18.7036931,2.54092132 17.6312192,2.3955482 16.5524794,2.40010362 Z M16.5586472,3.76370931 C17.4833417,3.75980441 18.3956654,3.88346928 19.2224293,4.17300161 L19.2914254,4.19761089 C21.4205872,4.97097116 22.6448158,6.71982053 22.5877333,9.87201243 L22.5859091,9.94872474 L22.544531,9.9537414 C20.5687177,10.1821372 19.0801245,9.93468311 18.0121445,9.29975811 C17.0663349,8.73746465 16.4526499,7.8701712 16.1148147,6.75717795 L16.0846848,6.65478472 C15.8213001,5.73089451 15.7671204,4.74524717 15.8439794,3.83748044 L15.8479394,3.79294077 L15.9401128,3.78613407 C16.1344289,3.77264929 16.3415113,3.76462625 16.5586472,3.76370931 Z" id="路径-6" fill="#25030A" fill-rule="nonzero"></path>
                            <path d="M15.0634573,3.27051828 C15.2006853,3.01893373 15.5158801,2.92622938 15.7674646,3.06345731 C17.8023009,4.17336804 19.1423745,5.51344165 19.7637506,7.09078076 C19.868788,7.35741427 19.7377885,7.65871312 19.471155,7.76375056 C19.2045215,7.868788 18.9032226,7.73778851 18.7981852,7.471155 C18.2755684,6.1445123 17.1076577,4.97660162 15.2705183,3.97452558 C15.0189337,3.83729764 14.9262294,3.52210284 15.0634573,3.27051828 Z" id="路径-7" fill="#25030A" fill-rule="nonzero"></path>
                        </g>
                    </g>
                </g>
            </g>
        </g>
    </g>
</svg>