<?xml version="1.0" encoding="UTF-8"?>
<svg width="148px" height="148px" viewBox="0 0 148 148" version="1.1" xmlns="http://www.w3.org/2000/svg" xmlns:xlink="http://www.w3.org/1999/xlink">
    <title>che_tx</title>
    <defs>
        <circle id="path-1" cx="74" cy="74" r="74"></circle>
        <mask id="mask-2" maskContentUnits="userSpaceOnUse" maskUnits="objectBoundingBox" x="0" y="0" width="148" height="148" fill="white">
            <use xlink:href="#path-1"></use>
        </mask>
        <mask id="mask-4" maskContentUnits="userSpaceOnUse" maskUnits="objectBoundingBox" x="0" y="0" width="148" height="148" fill="white">
            <use xlink:href="#path-1"></use>
        </mask>
        <path d="M19.39666,3.0308397 C7.61056328,-1.99005196 1.20295723,0.879491148 0.173841871,11.639469 C-1.36983117,27.7794358 7.53009362,36.4909417 20.3855406,36.4909417 C33.2409875,36.4909417 40.5587034,19.2659188 36.1690933,7.2837161 C33.2426865,-0.704419004 27.6518754,-2.12204447 19.39666,3.0308397 Z" id="path-5"></path>
        <path d="M20.3155768,3.17101604 C7.97111372,-2.08209186 1.25994733,0.920167614 0.18207763,12.1777945 C-1.43472692,29.0642347 7.88683181,38.1786477 21.3513055,38.1786477 C34.8157793,38.1786477 42.480172,20.1569675 37.8826041,7.62058797 C34.8175588,-0.736998383 28.961883,-2.22018903 20.3155768,3.17101604 Z" id="path-7"></path>
    </defs>
    <g id="页面-1" stroke="none" strokeWidth="1" fill="none" fillRule="evenodd">
        <g id="图" transform="translate(-62.000000, -401.000000)">
            <g id="che_tx" transform="translate(62.000000, 401.000000)">
                <mask id="mask-3" fill="white">
                    <use xlink:href="#path-1"></use>
                </mask>
                <g id="椭圆形" stroke="#CCCCCC" mask="url(#mask-2)" strokeWidth="10" fill="#E7E7E7" stroke-dasharray="4">
                    <use mask="url(#mask-4)" xlink:href="#path-1"></use>
                </g>
                <g id="编组-3" mask="url(#mask-3)">
                    <g transform="translate(34.000000, 74.000000)">
                        <path d="M15.2046703,57.3550709 C14.7223945,54.9427616 14.4339645,53.4358345 14.3393801,52.8342898 C9.66749401,23.1216835 19.8540155,5.24655212 46.8729373,0" id="路径-4" stroke="#CCCCCC" strokeWidth="4.74662656" fill="none" stroke-linecap="round"></path>
                        <path d="M46.8729373,0 C31.827969,17.5990017 32.2163399,36.058105 48.0380501,55.3773098" id="路径-5" stroke="#CCCCCC" strokeWidth="4.74662656" fill="none" stroke-linecap="round"></path>
                        <g id="编组-2" stroke="none" strokeWidth="1" fill="none" fillRule="evenodd" transform="translate(0.000000, 49.048474)">
                            <g id="编组" transform="translate(0.804976, 0.057896)">
                                <mask id="mask-6" fill="white">
                                    <use xlink:href="#path-5"></use>
                                </mask>
                                <use id="路径" fill="#E7E7E7" xlink:href="#path-5"></use>
                                <path d="M1.59681043,22.4337391 C15.1774364,28.1094171 27.3736296,24.8096043 38.1853901,12.5343006 C41.1520317,25.7995481 34.6254202,36.2929529 19.39666,37.6788743 C9.24415321,38.6028219 3.31087002,33.5211101 1.59681043,22.4337391 Z" id="路径-3" fill="#CCCCCC" mask="url(#mask-6)"></path>
                            </g>
                            <path d="M24.1927872,7.0352475 C15.7116052,-0.291932253 8.83399943,-1.45035811 3.55996992,3.55996992 C-4.35107434,11.075462 0.791104426,36.7863558 21.0435064,36.4918714 C36.9867403,34.7126122 38.7582108,17.3154115 38.7582108,12.5707205 C38.7582108,7.82602935 34.4279497,-6.21034848 19.665696,3.27903372" id="路径-2" stroke="#CCCCCC" strokeWidth="3.75774602" stroke-linecap="round"></path>
                            <path d="M12.0643425,4.04193326 C7.44956668,3.45433758 4.8784773,5.86347987 4.35107434,11.2693601 C7.71326816,7.31383798 9.49325312,5.62414211 15.4265363,5.2285899 C15.0309841,4.96488842 13.9102528,4.56933621 12.0643425,4.04193326 Z" id="路径-8" fill="#FFFFFF"></path>
                        </g>
                        <g id="编组-2备份" stroke="none" strokeWidth="1" fill="none" fillRule="evenodd" transform="translate(55.687313, 65.813669) rotate(-15.000000) translate(-55.687313, -65.813669) translate(35.687313, 46.313669)">
                            <g id="编组">
                                <mask id="mask-8" fill="white">
                                    <use xlink:href="#path-7"></use>
                                </mask>
                                <use id="路径" fill="#E7E7E7" xlink:href="#path-7"></use>
                                <path d="M1.67245932,23.4712995 C15.8964675,29.4094777 28.6704554,25.9570485 39.994423,13.114012 C43.1016092,26.9927772 36.2657995,37.971502 20.3155768,39.4215222 C9.68209497,40.3882024 3.46772248,35.0714615 1.67245932,23.4712995 Z" id="路径-3" fill="#CCCCCC" mask="url(#mask-8)" transform="translate(21.199161, 26.323537) rotate(10.000000) translate(-21.199161, -26.323537) "></path>
                            </g>
                            <path d="M24.6656375,7.31393103 C16.1541003,0.244638257 9.24924202,-1.06728482 3.95106257,3.37816179 C-3.99620662,10.0463317 0.015293323,39.0072307 21.3513055,38.1786477 C38.1301113,36.314336 39.994423,18.08551 39.994423,13.114012 C39.994423,8.14251403 35.4372165,-6.5648342 19.9012853,3.37816179" id="路径-2" stroke="#CCCCCC" strokeWidth="4.14291499" stroke-linecap="round"></path>
                        </g>
                        <path d="M44.9799374,54.2654268 C41.0244152,53.7569665 38.8206243,55.8416537 38.3685647,60.5194886 C41.2504451,57.0966826 42.7761465,55.6345492 47.8618178,55.2922686 C47.522773,55.0640815 46.5621462,54.7218009 44.9799374,54.2654268 Z" id="路径-8备份" stroke="none" fill="#FFFFFF" fillRule="evenodd" transform="translate(43.115191, 57.355071) rotate(-9.000000) translate(-43.115191, -57.355071) "></path>
                        <path d="M42.2224685,7.00933591 C42.2224685,7.00933591 37.6258033,32.7678715 64.7879158,28.3700727 C66.4594305,2.61153715 42.2224685,7.00933591 42.2224685,7.00933591 Z" id="路径-6" stroke="#CCCCCC" strokeWidth="3.95552213" fill="#E7E7E7" fillRule="evenodd"></path>
                        <path d="M42.719639,7.91104426 C48.622851,11.1309781 52.4465224,14.9546495 54.1906532,19.3820584" id="路径-7" stroke="#CCCCCC" strokeWidth="3.16441771" fill="none" stroke-linecap="round"></path>
                    </g>
                </g>
                <text id="？" stroke="#CCCCCC" strokeWidth="2" mask="url(#mask-3)" font-family="Klee-Demibold, Klee" font-size="60" font-weight="500" letter-spacing="9.9" fill="#CCCCCC">
                    <tspan x="45" y="62">？</tspan>
                </text>
            </g>
        </g>
    </g>
</svg>
