<?xml version="1.0" encoding="UTF-8"?>
<svg width="234px" height="180px" viewBox="0 0 234 180" version="1.1" xmlns="http://www.w3.org/2000/svg" xmlns:xlink="http://www.w3.org/1999/xlink">
    <title>-mockplus-</title>
    <defs>
        <filter x="-6.3%" y="-10.0%" width="112.6%" height="120.1%" filterUnits="objectBoundingBox" id="filter-1">
            <feOffset dx="0" dy="2" in="SourceAlpha" result="shadowOffsetOuter1"></feOffset>
            <feGaussianBlur stdDeviation="10" in="shadowOffsetOuter1" result="shadowBlurOuter1"></feGaussianBlur>
            <feColorMatrix values="0 0 0 0 0.909193841   0 0 0 0 0.850013083   0 0 0 0 0.858870067  0 0 0 0.504698427 0" type="matrix" in="shadowBlurOuter1" result="shadowMatrixOuter1"></feColorMatrix>
            <feMerge>
                <feMergeNode in="shadowMatrixOuter1"></feMergeNode>
                <feMergeNode in="SourceGraphic"></feMergeNode>
            </feMerge>
        </filter>
        <path d="M47.0801719,5.96509577 C18.4725941,-3.91668702 2.91985493,1.73095559 0.421954356,22.9080236 C-3.3248965,54.6736256 18.2772757,71.8190281 49.4804132,71.8190281 C80.6835508,71.8190281 98.4453368,37.9178913 87.7907396,14.3353223 C80.6876747,-1.38639032 67.1174855,-4.17646585 47.0801719,5.96509577 Z" id="path-2"></path>
        <path d="M49.3883895,6.2416119 C19.3782571,-4.09824775 3.06300777,1.81119523 0.442641674,23.9699408 C-3.48790748,57.2080593 19.1733627,75.1482487 51.9063084,75.1482487 C84.6392542,75.1482487 103.271854,39.6756014 92.0948898,14.9998461 C84.6435803,-1.4506574 70.4080802,-4.3700688 49.3883895,6.2416119 Z" id="path-4"></path>
    </defs>
    <g id="页面-2" stroke="none" stroke-width="1" fill="none" fill-rule="evenodd" opacity="0.08">
        <g id="首页" transform="translate(-1613.000000, -335.000000)">
            <g id="卡片1备份" filter="url(#filter-1)" transform="translate(1099.000000, 381.000000)">
                <g id="-mockplus-" transform="translate(514.000000, -46.000000)">
                    <g id="ka_b1" transform="translate(-2.000000, -51.000000)">
                        <g transform="translate(133.040000, 132.000000) rotate(40.000000) translate(-133.040000, -132.000000) translate(34.760000, 43.421053)">
                            <path d="M38.4534119,113.546823 C37.2788342,108.805199 36.5763657,105.843191 36.3460064,104.660798 C24.9676747,46.2578465 49.7768456,11.1225772 115.581159,0.809980397" id="路径-4" stroke="#25030A" stroke-width="10.011799" stroke-linecap="round"></path>
                            <path d="M115.381933,0.685751986 C77.7598989,35.3094079 78.7310745,71.6251974 118.29546,109.63312" id="路径-5" stroke="#4C0C1A" stroke-width="10.011799" stroke-linecap="round"></path>
                            <g id="编组-2" transform="translate(0.302146, 97.136343)">
                                <g id="编组" transform="translate(1.953862, 0.113946)">
                                    <mask id="mask-3" fill="white">
                                        <use xlink:href="#path-2"></use>
                                    </mask>
                                    <use id="路径" fill="#E55268" xlink:href="#path-2"></use>
                                    <path d="M3.87582755,44.1525832 C36.8391421,55.3230727 66.4421188,48.828602 92.6847576,24.6691712 C99.8854816,50.7769432 84.0438887,71.4293599 47.0801719,74.1570376 C22.437694,75.9754893 8.03624589,65.9740045 3.87582755,44.1525832 Z" id="路径-3" fill="#DA374F" mask="url(#mask-3)"></path>
                                </g>
                                <path d="M58.7214797,13.8463031 C38.135693,-0.574561514 21.4421561,-2.85449773 8.64086887,7.00649443 C-10.5610619,21.7979827 1.92019308,72.4004425 51.0774482,71.820858 C89.7753577,68.3190392 94.0751255,34.0790336 94.0751255,24.7408503 C94.0751255,15.402667 83.5645821,-12.2227921 47.7331844,6.45357461" id="路径-2" stroke="#25030A" stroke-width="9.176008" stroke-linecap="round"></path>
                                <path d="M29.2829445,7.95506241 C18.0818182,6.79859594 11.8411907,11.5401085 10.5610619,22.1796 C18.7218825,14.3946062 23.042317,11.0690599 37.4437651,10.2905606 C36.4836685,9.77156097 33.763395,8.99306159 29.2829445,7.95506241 Z" id="路径-8" fill="#FFEAED"></path>
                            </g>
                            <g id="编组-2备份" transform="translate(136.692408, 129.746464) rotate(-15.000000) translate(-136.692408, -129.746464) translate(87.552408, 91.851727)">
                                <g id="编组">
                                    <mask id="mask-5" fill="white">
                                        <use xlink:href="#path-4"></use>
                                    </mask>
                                    <use id="路径" fill="#E55268" xlink:href="#path-4"></use>
                                    <path d="M4.66147973,47.7836126 C38.5725371,58.4292102 69.7218301,50.5746913 98.1093587,24.2200558 C104.521518,51.4858462 87.129873,73.7897314 48.461733,77.9262449 C22.6829729,80.6839205 8.08288851,70.6363764 4.66147973,47.7836126 Z" id="路径-3" fill="#DA374F" mask="url(#mask-5)" transform="translate(52.036270, 51.295856) rotate(10.000000) translate(-52.036270, -51.295856) "></path>
                                </g>
                                <path d="M59.9636489,14.3962435 C39.2715899,0.481529276 22.4854639,-2.10077072 9.60527083,6.64934348 C-9.71501874,19.7745148 0.0371789883,76.7791751 51.9063084,75.1482487 C92.6965947,71.4786645 97.2288487,35.5982856 97.2288487,25.8127277 C97.2288487,16.0271698 86.1500055,-12.9217723 48.381222,6.64934348" id="路径-2" stroke="#4C0C1A" stroke-width="8.501549" stroke-linecap="round"></path>
                            </g>
                            <path d="M110.05163,107.689517 C100.443957,106.400139 95.2604095,110.369541 94.5009882,119.597723 C101.229664,113.027787 104.816923,110.242347 117.098436,109.928352 C116.261723,109.45238 113.912787,108.706101 110.05163,107.689517 Z" id="路径-8备份" fill="#FFEAED" transform="translate(105.799712, 113.525068) rotate(-9.000000) translate(-105.799712, -113.525068) "></path>
                            <path d="M103.133385,14.6900394 C103.133385,14.6900394 91.8811661,65.3664748 158.371548,56.7144005 C162.463264,6.03796506 103.133385,14.6900394 103.133385,14.6900394 Z" id="路径-6" stroke="#4C0C1A" stroke-width="8.343166" fill="#39B465"></path>
                            <path d="M104.132456,15.6082398 C118.582982,21.9905112 127.942982,29.5694586 132.212456,38.3450819" id="路径-7" stroke="#4C0C1A" stroke-width="2.67453294" stroke-linecap="round"></path>
                        </g>
                    </g>
                </g>
            </g>
        </g>
    </g>
</svg>