<?xml version="1.0" encoding="UTF-8"?>
<svg width="80px" height="80px" viewBox="0 0 80 80" version="1.1" xmlns="http://www.w3.org/2000/svg" xmlns:xlink="http://www.w3.org/1999/xlink">
    <title>-mockplus-</title>
    <defs>
        <filter x="-6.3%" y="-10.0%" width="112.6%" height="120.1%" filterUnits="objectBoundingBox" id="filter-1">
            <feOffset dx="0" dy="2" in="SourceAlpha" result="shadowOffsetOuter1"></feOffset>
            <feGaussianBlur stdDeviation="10" in="shadowOffsetOuter1" result="shadowBlurOuter1"></feGaussianBlur>
            <feColorMatrix values="0 0 0 0 0.909193841   0 0 0 0 0.850013083   0 0 0 0 0.858870067  0 0 0 0.504698427 0" type="matrix" in="shadowBlurOuter1" result="shadowMatrixOuter1"></feColorMatrix>
            <feMerge>
                <feMergeNode in="shadowMatrixOuter1"></feMergeNode>
                <feMergeNode in="SourceGraphic"></feMergeNode>
            </feMerge>
        </filter>
        <path d="M16.4261585,2.56668175 C6.44504357,-1.68528545 1.01873035,0.744801476 0.147218858,9.85694254 C-1.16004838,23.5251541 6.37689744,30.9025364 17.2635969,30.9025364 C28.1502964,30.9025364 34.3473408,16.3154396 30.6299775,6.1682514 C28.1517353,-0.596540756 23.417129,-1.79706397 16.4261585,2.56668175 Z" id="path-2"></path>
        <path d="M17.2043478,2.68539079 C6.75037751,-1.7632299 1.0669927,0.779248545 0.154193351,10.3128261 C-1.21500567,24.6131925 6.67900295,32.3317787 18.0814598,32.3317787 C29.4839167,32.3317787 35.9745461,17.0700287 32.0810727,6.45353303 C29.4854237,-0.624130766 24.5265154,-1.88017818 17.2043478,2.68539079 Z" id="path-4"></path>
    </defs>
    <g id="页面-2" stroke="none" stroke-width="1" fill="none" fill-rule="evenodd">
        <g id="首页" transform="translate(-1129.000000, -467.000000)">
            <g id="卡片1备份" filter="url(#filter-1)" transform="translate(1099.000000, 381.000000)">
                <g id="-mockplus-" transform="translate(30.000000, 86.000000)">
                    <g id="编组-3" transform="translate(6.000000, 3.000000)">
                        <path d="M12.876151,48.5714286 C12.4677334,46.5285523 12.223475,45.2524036 12.1433757,44.7429824 C8.18696564,19.5807133 16.8134723,4.4430689 39.6945813,0" id="路径-4" stroke="#25030A" stroke-width="4.01970443" stroke-linecap="round"></path>
                        <path d="M39.6945813,0 C26.9536747,14.9038026 27.2825686,30.5359865 40.6812629,46.8965517" id="路径-5" stroke="#25030A" stroke-width="4.01970443" stroke-linecap="round"></path>
                        <g id="编组-2" transform="translate(0.000000, 41.536946)">
                            <g id="编组" transform="translate(0.681698, 0.049029)">
                                <mask id="mask-3" fill="white">
                                    <use xlink:href="#path-2"></use>
                                </mask>
                                <use id="路径" fill="#E55268" xlink:href="#path-2"></use>
                                <path d="M1.35226689,18.9981241 C12.8530879,23.8046004 23.1814951,21.0101374 32.3374886,10.6147351 C34.8498038,21.8484763 29.3227102,30.7348686 16.4261585,31.9085431 C7.82845737,32.6909927 2.80382683,28.3875197 1.35226689,18.9981241 Z" id="路径-3" fill="#DA374F" mask="url(#mask-3)"></path>
                            </g>
                            <path d="M20.4877828,5.95783452 C13.3054514,-0.247224288 7.48111658,-1.22824302 3.01477833,3.01477833 C-3.68472906,9.37931034 0.669950739,31.1527094 17.8207986,30.9033238 C31.322406,29.3965492 32.8225846,14.6636428 32.8225846,10.6455775 C32.8225846,6.62751209 29.1554813,-5.25926466 16.653993,2.7768661" id="路径-2" stroke="#25030A" stroke-width="3.18226601" stroke-linecap="round"></path>
                            <path d="M10.2167488,3.42293139 C6.30870279,2.92532305 4.13136289,4.96551724 3.68472906,9.54351396 C6.5320197,6.19376026 8.03940887,4.76283287 13.0640394,4.4278575 C12.729064,4.20454059 11.7799672,3.86956522 10.2167488,3.42293139 Z" id="路径-8" fill="#FFEAED"></path>
                        </g>
                        <g id="编组-2备份" transform="translate(47.216298, 55.705148) rotate(-15.000000) translate(-47.216298, -55.705148) translate(30.216298, 39.205148)">
                            <g id="编组">
                                <mask id="mask-5" fill="white">
                                    <use xlink:href="#path-4"></use>
                                </mask>
                                <use id="路径" fill="#E55268" xlink:href="#path-4"></use>
                                <path d="M1.41633054,19.8767873 C13.462003,24.9055632 24.2797185,21.9818563 33.8694771,11.1056666 C36.5008133,22.8589684 30.7118736,32.1563563 17.2043478,33.3843132 C8.19933054,34.2029511 2.93665812,29.7004425 1.41633054,19.8767873 Z" id="路径-3" fill="#DA374F" mask="url(#mask-5)" transform="translate(17.952615, 22.292219) rotate(10.000000) translate(-17.952615, -22.292219) "></path>
                            </g>
                            <path d="M20.8882185,6.19383906 C13.6801806,0.207173131 7.83276685,-0.90383549 3.34597709,2.8608132 C-3.38420756,8.50778623 0.012951227,33.0334684 18.0814598,32.3317787 C32.2906754,30.752977 33.8694771,15.3158046 33.8694771,11.1056666 C33.8694771,6.89552872 30.010184,-5.55946266 16.853503,2.8608132" id="路径-2" stroke="#25030A" stroke-width="3.50844828" stroke-linecap="round"></path>
                        </g>
                        <path d="M38.0914849,45.954948 C34.7417312,45.5243558 32.8754398,47.2897837 32.4926108,51.2512315 C34.9331457,48.3526112 36.2251935,47.1143961 40.5320197,46.8245341 C40.244898,46.6312927 39.4313863,46.3414307 38.0914849,45.954948 Z" id="路径-8备份" fill="#FFEAED" transform="translate(36.512315, 48.571429) rotate(-9.000000) translate(-36.512315, -48.571429) "></path>
                        <path d="M35.7563086,5.93589116 C35.7563086,5.93589116 31.8635997,27.7496358 54.8659705,24.0253379 C56.281501,2.21159329 35.7563086,5.93589116 35.7563086,5.93589116 Z" id="路径-6" stroke="#25030A" stroke-width="3.34975369" fill="#39B465"></path>
                        <path d="M36.1773399,6.69950739 C41.1765045,9.42632443 44.4145997,12.6644197 45.8916256,16.4137931" id="路径-7" stroke="#25030A" stroke-width="2.67980296" stroke-linecap="round"></path>
                    </g>
                </g>
            </g>
        </g>
    </g>
</svg>